<?xml version="1.0" encoding="UTF-8"?>
<svg id="Layer_1" data-name="Layer 1" xmlns="http://www.w3.org/2000/svg" viewBox="0 0 1147 315">
  <defs>
    <style>
      .cls-1 {
        fill: #00b2ed;
        stroke-width: 0px;
      }
    </style>
  </defs>
  <path id="u" class="cls-1" d="M1116.73,120.76h-.3c-13.22,0-23.94,10.72-23.94,23.94v79.61c-2.57,22.9-22.33,40.73-46.34,40.73-25.2,0-45.71-19.65-46.58-44.19v-3.37h0v-11.87c.12-.97.19-1.95.19-2.94v-59.56c0-13.15-10.66-23.81-23.81-23.81h-.28c-13.15,0-23.81,10.66-23.81,23.81v59.56c0,1.01.07,2.01.19,2.99v11.83h-.03c-.01.59-.02,1.17-.02,1.76,0,50.92,42.23,92.19,94.33,92.19,17.91,0,34.65-4.87,48.91-13.34,3.86,7.92,11.98,13.38,21.38,13.38h.2c13.13,0,23.77-10.64,23.77-23.77v-49.84h.07v-93.16c0-13.22-10.72-23.94-23.94-23.94h.01Z"/>
  <path id="u-2" class="cls-1" d="M721.73,120.76h-.3c-13.22,0-23.94,10.72-23.94,23.94v79.61c-2.57,22.9-22.33,40.73-46.34,40.73-25.2,0-45.71-19.65-46.58-44.19v-3.37h0v-11.87c.12-.97.19-1.95.19-2.94v-59.56c0-13.15-10.66-23.81-23.81-23.81h-.28c-13.15,0-23.81,10.66-23.81,23.81v59.56c0,1.01.07,2.01.19,2.99v11.83h-.03c-.01.59-.02,1.17-.02,1.76,0,50.92,42.23,92.19,94.33,92.19,17.91,0,34.65-4.87,48.91-13.34,3.86,7.92,11.98,13.38,21.38,13.38h.2c13.13,0,23.77-10.64,23.77-23.77v-49.84h.07v-93.16c0-13.22-10.72-23.94-23.94-23.94h.01Z"/>
  <path id="f" class="cls-1" d="M526.66,55.71l7.07-.4c13.22-.74,23.34-12.06,22.6-25.28l-.05-.94c-.74-13.22-12.06-23.34-25.28-22.6l-4.36.24c-6.51-.21-14.1.94-14.1.94-79.1,11.58-78.41,86.59-79.13,89h-.08v14.45h-30.73c-13.25,0-23.98,10.74-23.98,23.98v.24c0,13.25,10.74,23.98,23.98,23.98h30.73v130.08c0,12.16,9.86,22.02,22.02,22.02h3.57c12.16,0,22.02-9.86,22.02-22.02v-130.08h40.56c13.25,0,23.99-10.74,23.99-23.98v-.24c0-13.25-10.74-23.98-23.99-23.98h-40.56v-14.45c2.26-31.09,32-38.98,45.71-40.98v.02Z"/>
  <rect class="cls-1" x="201.47" y="48.91" width="166.88" height="48.21" rx="23.98" ry="23.98"/>
  <path class="cls-1" d="M285.63,116.55c-54.14,0-98.04,43.89-98.04,98.04s43.89,98.04,98.04,98.04,98.04-43.89,98.04-98.04-43.89-98.04-98.04-98.04ZM285.62,260.39c-25.75,0-46.62-20.51-46.62-45.8s20.87-45.81,46.62-45.81,46.63,20.51,46.63,45.81-20.88,45.8-46.63,45.8Z"/>
  <path class="cls-1" d="M171.06,271.21l-79.19-76.2c-.1-.1-.63-.62-.74-.72l55.48-56.66c9.2-9.4,9.04-24.47-.36-33.67l-.11-.1c-9.4-9.2-24.47-9.04-33.67.36l-57.53,58.77V47.42c0-13.15-10.66-23.81-23.81-23.81S7.33,34.28,7.33,47.42v240.21c0,13.15,10.66,23.81,23.81,23.81s23.81-10.66,23.81-23.81v-57.04c.13-.09.26-.2.39-.3v-4.95l72.42,71.09,9.5,9.3c9.4,9.2,24.47,9.04,33.67-.36l.49-.5c9.2-9.4,9.04-24.47-.36-33.67h0Z"/>
  <path class="cls-1" d="M940.06,272.21l-79.19-76.2c-.1-.1-.63-.62-.74-.72l55.48-56.66c9.2-9.4,9.04-24.47-.36-33.67l-.11-.1c-9.4-9.2-24.47-9.04-33.67.36l-57.53,58.77V48.42c0-13.15-10.66-23.81-23.81-23.81s-23.81,10.66-23.81,23.81v240.21c0,13.15,10.66,23.81,23.81,23.81s23.81-10.66,23.81-23.81v-57.04c.13-.09.26-.2.39-.3v-4.95l72.42,71.09,9.5,9.3c9.4,9.2,24.47,9.04,33.67-.36l.49-.5c9.2-9.4,9.04-24.47-.36-33.67h0Z"/>
</svg>