<svg width="604" height="172" viewBox="0 0 604 172" fill="none" xmlns="http://www.w3.org/2000/svg">
<mask id="mask0_1_132" style="mask-type:alpha" maskUnits="userSpaceOnUse" x="22" y="-1" width="561" height="174">
<path d="M35.7369 19.6572C53.7233 4.82342 95.8888 -15.9439 120.66 19.6572C151.623 64.1586 202.168 29.855 217.714 19.6572C233.26 9.45944 262.249 -6.30239 280.395 19.6572C298.541 45.6168 340.673 29.855 355.208 19.6572C369.743 9.45944 405.153 -3.52105 424.966 19.6572C444.779 42.8355 481.337 33.5634 505.845 19.6572C530.353 5.75099 566.611 2.04162 581.669 19.6572" stroke="white" stroke-width="2"/>
<path d="M35.1563 22.1213C53.1427 7.28754 95.3082 -13.4798 120.079 22.1213C151.043 66.6227 201.588 32.3191 217.134 22.1213C232.679 11.9236 261.668 -3.83826 279.815 22.1213C297.961 48.0809 340.093 32.3191 354.627 22.1213C369.162 11.9236 404.573 -1.05693 424.385 22.1213C444.198 45.2996 480.756 36.0275 505.264 22.1213C529.772 8.21512 566.031 4.50574 581.088 22.1213" stroke="white" stroke-width="2"/>
<path d="M35.1866 27.6297C53.2758 12.3596 95.5852 -9.0185 120.109 27.6297C150.764 73.4399 201.547 38.1274 217.164 27.6297C232.78 17.132 261.879 0.906579 279.845 27.6297C297.811 54.3528 340.052 38.1274 354.658 27.6297C369.263 17.132 404.764 3.76972 424.416 27.6297C444.068 51.4897 480.69 41.9449 505.294 27.6297C529.899 13.3145 566.183 9.496 581.118 27.6297" stroke="white" stroke-width="2"/>
<path d="M33.4441 35.024C51.5686 19.7539 93.9687 -1.62416 118.573 35.024C149.329 80.8343 200.216 45.5217 215.864 35.024C231.513 24.5263 260.672 8.30091 278.698 35.024C296.723 61.7471 339.057 45.5217 353.693 35.024C368.328 24.5263 403.907 11.1641 423.62 35.024C443.334 58.884 480.04 49.3392 504.696 35.024C529.352 20.7088 565.722 16.8903 580.704 35.024" stroke="white" stroke-width="2"/>
<path d="M33.0279 42.4193C51.1523 27.1493 93.5525 5.77116 118.157 42.4193C148.913 88.2296 199.799 52.917 215.448 42.4193C231.096 31.9216 260.256 15.6962 278.281 42.4193C296.307 69.1425 338.641 52.917 353.276 42.4193C367.911 31.9216 403.491 18.5594 423.204 42.4193C442.917 66.2793 479.624 56.7346 504.28 42.4193C528.935 28.1041 565.306 24.2857 580.288 42.4193" stroke="white" stroke-width="2"/>
<path d="M33.7151 39.4997C51.8396 24.2296 94.2397 2.8515 118.844 39.4997C149.6 85.3099 200.487 49.9974 216.135 39.4997C231.784 29.002 260.943 12.7766 278.969 39.4997C296.994 66.2228 339.328 49.9974 353.964 39.4997C368.599 29.002 404.178 15.6397 423.891 39.4997C443.605 63.3597 480.311 53.8149 504.967 39.4997C529.623 25.1845 565.993 21.366 580.975 39.4997" stroke="white" stroke-width="2"/>
<path d="M32.3255 51.0458C50.4147 35.7757 92.7241 14.3976 117.248 51.0458C147.903 96.856 198.686 61.5435 214.303 51.0458C229.919 40.5481 259.018 24.3226 276.984 51.0458C294.95 77.7689 337.191 61.5435 351.797 51.0458C366.402 40.5481 401.903 27.1858 421.555 51.0458C441.207 74.9057 477.829 65.361 502.433 51.0458C527.037 36.7305 563.322 32.9121 578.257 51.0458" stroke="white" stroke-width="2"/>
<path d="M33.2439 47.1524C51.3331 31.8823 93.6426 10.5042 118.167 47.1524C148.822 92.9626 199.605 57.6501 215.221 47.1524C230.838 36.6547 259.936 20.4293 277.902 47.1524C295.869 73.8755 338.109 57.6501 352.715 47.1524C367.321 36.6547 402.821 23.2924 422.473 47.1524C442.125 71.0123 478.748 61.4676 503.352 47.1524C527.956 32.8371 564.24 29.0187 579.176 47.1524" stroke="white" stroke-width="2"/>
<path d="M31.9114 58.4411C50.0359 43.171 92.436 21.7929 117.041 58.4411C147.797 104.251 198.683 68.9388 214.331 58.4411C229.98 47.9434 259.14 31.7179 277.165 58.4411C295.19 85.1642 337.525 68.9388 352.16 58.4411C366.795 47.9434 402.374 34.5811 422.088 58.4411C441.801 82.301 478.507 72.7563 503.163 58.4411C527.819 44.1258 564.189 40.3074 579.171 58.4411" stroke="white" stroke-width="2"/>
<path d="M31.199 61.4641C49.3235 46.1941 91.7236 24.816 116.328 61.4641C147.084 107.274 197.97 71.9618 213.619 61.4641C229.268 50.9664 258.427 34.741 276.453 61.4641C294.478 88.1873 336.812 71.9618 351.447 61.4641C366.083 50.9664 401.662 37.6042 421.375 61.4641C441.089 85.3241 477.795 75.7794 502.451 61.4641C527.106 47.1489 563.477 43.3305 578.459 61.4641" stroke="white" stroke-width="4"/>
<path d="M30.0327 66.4126C48.2953 50.7062 90.93 28.7173 115.369 66.4126C145.917 113.532 197.144 77.2102 212.895 66.4126C228.647 55.6149 257.977 38.9259 275.882 66.4126C293.786 93.8992 336.323 77.2102 351.058 66.4126C365.794 55.6149 401.542 41.8709 421.156 66.4126C440.77 90.9543 477.624 81.1368 502.428 66.4126C527.232 51.6883 563.714 47.7608 578.621 66.4126" stroke="white" stroke-width="4"/>
<path d="M29.2979 69.5316C47.4576 54.2615 89.9484 32.8834 114.634 69.5316C145.491 115.342 196.48 80.0293 212.161 69.5316C227.841 59.0339 257.062 42.8085 275.147 69.5316C293.231 96.2547 335.659 80.0293 350.324 69.5316C364.988 59.0339 400.646 45.6716 420.421 69.5316C440.196 93.3916 476.986 83.8468 501.693 69.5316C526.401 55.2164 562.857 51.3979 577.886 69.5316" stroke="white" stroke-width="4"/>
<path d="M29.5984 73.8846C47.6554 59.0508 90.0022 38.2835 114.934 73.8846C146.1 118.386 196.851 84.0824 212.461 73.8846C228.071 63.6869 257.183 47.925 275.447 73.8846C293.711 99.8442 336.03 84.0824 350.624 73.8846C365.218 63.6869 400.786 50.7064 420.722 73.8846C440.657 97.0629 477.383 87.7909 501.994 73.8846C526.605 59.9784 563.036 56.269 578.187 73.8846" stroke="white" stroke-width="2"/>
<path d="M29.1844 81.279C47.206 66.4452 89.4622 45.6779 114.314 81.279C145.378 125.78 196.026 91.4767 211.604 81.279C227.182 71.0812 256.233 55.3194 274.438 81.279C292.643 107.239 334.868 91.4767 349.433 81.279C363.997 71.0812 399.486 58.1007 419.36 81.279C439.235 104.457 475.877 95.1852 500.436 81.279C524.995 67.3728 561.34 63.6634 576.444 81.279" stroke="white" stroke-width="2"/>
<path d="M27.1517 89.9054C45.2086 75.0716 87.5555 54.3043 112.488 89.9054C143.653 134.407 194.405 100.103 210.014 89.9054C225.624 79.7076 254.736 63.9458 273 89.9054C291.265 115.865 333.583 100.103 348.177 89.9054C362.771 79.7076 398.339 66.7271 418.275 89.9054C438.21 113.084 474.936 103.812 499.547 89.9054C524.158 75.9992 560.589 72.2898 575.74 89.9054" stroke="white" stroke-width="2"/>
<path d="M26.7395 97.2997C44.7965 82.4659 87.1433 61.6986 112.075 97.2997C143.241 141.801 193.992 107.497 209.602 97.2997C225.212 87.1019 254.324 71.3401 272.588 97.2997C290.853 123.259 333.171 107.497 347.765 97.2997C362.359 87.1019 397.927 74.1214 417.863 97.2997C437.798 120.478 474.524 111.206 499.135 97.2997C523.746 83.3935 560.177 79.6841 575.328 97.2997" stroke="white" stroke-width="4"/>
<path d="M27.6895 93.2689C45.7464 78.4351 88.0933 57.6678 113.025 93.2689C144.191 137.77 194.942 103.467 210.552 93.2689C226.162 83.0712 255.274 67.3093 273.538 93.2689C291.803 119.229 334.121 103.467 348.715 93.2689C363.309 83.0712 398.877 70.0907 418.813 93.2689C438.748 116.447 475.474 107.175 500.085 93.2689C524.696 79.3627 561.127 75.6533 576.278 93.2689" stroke="white" stroke-width="2"/>
<path d="M25.7898 101.33C43.8468 86.4967 86.1936 65.7294 111.126 101.33C142.291 145.832 193.043 111.528 208.653 101.33C224.262 91.1327 253.374 75.3709 271.639 101.33C289.903 127.29 332.222 111.528 346.816 101.33C361.41 91.1327 396.977 78.1522 416.913 101.33C436.849 124.509 473.574 115.237 498.185 101.33C522.796 87.4243 559.227 83.7149 574.378 101.33" stroke="white" stroke-width="4"/>
<path d="M26.035 105.927C44.0566 91.0933 86.3128 70.326 111.164 105.927C142.229 150.428 192.877 116.125 208.455 105.927C224.033 95.7293 253.083 79.9675 271.289 105.927C289.494 131.887 331.719 116.125 346.283 105.927C360.848 95.7293 396.337 82.7488 416.211 105.927C436.085 129.105 472.727 119.833 497.287 105.927C521.846 92.0209 558.191 88.3115 573.295 105.927" stroke="white" stroke-width="2"/>
<path d="M27.1016 112.668C45.1908 97.3974 87.5003 76.0193 112.024 112.668C142.679 158.478 193.462 123.165 209.079 112.668C224.695 102.17 253.794 85.9444 271.76 112.668C289.726 139.391 331.967 123.165 346.573 112.668C361.178 102.17 396.679 88.8075 416.331 112.668C435.983 136.527 472.605 126.983 497.21 112.668C521.814 98.3523 558.098 94.5338 573.033 112.668" stroke="white" stroke-width="4"/>
<path d="M28.0515 108.637C46.1408 93.3667 88.4502 71.9886 112.974 108.637C143.629 154.447 194.412 119.134 210.029 108.637C225.645 98.139 254.744 81.9136 272.71 108.637C290.676 135.36 332.917 119.134 347.523 108.637C362.128 98.139 397.629 84.7768 417.281 108.637C436.933 132.497 473.555 122.952 498.159 108.637C522.764 94.3215 559.048 90.503 573.983 108.637" stroke="white" stroke-width="2"/>
<path d="M25.2229 120.64C43.4502 104.934 85.9943 82.9447 110.352 120.64C140.8 167.759 191.924 131.438 207.643 120.64C223.362 109.842 252.631 93.1534 270.476 120.64C288.322 148.127 330.766 131.438 345.471 120.64C360.177 109.842 395.846 96.0983 415.399 120.64C434.952 145.182 471.722 135.364 496.475 120.64C521.227 105.916 557.623 101.988 572.483 120.64" stroke="white" stroke-width="2"/>
<path d="M26.1726 116.609C44.3999 100.903 86.944 78.914 111.302 116.609C141.749 163.728 192.873 127.407 208.593 116.609C224.312 105.812 253.581 89.1226 271.426 116.609C289.272 144.096 331.715 127.407 346.421 116.609C361.127 105.812 396.796 92.0675 416.349 116.609C435.902 141.151 472.672 131.333 497.424 116.609C522.176 101.885 558.573 97.9574 573.433 116.609" stroke="white" stroke-width="2"/>
<path d="M24.6546 128.689C42.779 113.419 85.1792 92.041 109.784 128.689C140.54 174.499 191.426 139.187 207.075 128.689C222.723 118.192 251.883 101.966 269.908 128.689C287.933 155.412 330.268 139.187 344.903 128.689C359.538 118.192 395.117 104.829 414.831 128.689C434.544 152.549 471.25 143.004 495.906 128.689C520.562 114.374 556.932 110.556 571.915 128.689" stroke="white" stroke-width="2"/>
<path d="M25.6043 124.658C43.7288 109.388 86.1289 88.0103 110.734 124.658C141.49 170.469 192.376 135.156 208.024 124.658C223.673 114.161 252.833 97.9353 270.858 124.658C288.883 151.382 331.218 135.156 345.853 124.658C360.488 114.161 396.067 100.798 415.78 124.658C435.494 148.518 472.2 138.974 496.856 124.658C521.512 110.343 557.882 106.525 572.864 124.658" stroke="white" stroke-width="4"/>
<path d="M23.9422 131.712C42.0666 116.442 84.4668 95.0641 109.072 131.712C139.827 177.523 190.714 142.21 206.362 131.712C222.011 121.215 251.17 104.989 269.196 131.712C287.221 158.435 329.555 142.21 344.191 131.712C358.826 121.215 394.405 107.852 414.118 131.712C433.832 155.572 470.538 146.028 495.194 131.712C519.85 117.397 556.22 113.579 571.202 131.712" stroke="white" stroke-width="2"/>
<path d="M24.2403 136.085C42.3295 120.814 84.6389 99.4364 109.163 136.085C139.818 181.895 190.601 146.582 206.218 136.085C221.834 125.587 250.932 109.361 268.899 136.085C286.865 162.808 329.106 146.582 343.711 136.085C358.317 125.587 393.817 112.225 413.469 136.085C433.121 159.945 469.744 150.4 494.348 136.085C518.952 121.769 555.237 117.951 570.172 136.085" stroke="white" stroke-width="2"/>
<path d="M23.2906 140.115C41.3798 124.845 83.6892 103.467 108.213 140.115C138.868 185.926 189.651 150.613 205.268 140.115C220.884 129.618 249.983 113.392 267.949 140.115C285.915 166.838 328.156 150.613 342.762 140.115C357.367 129.618 392.868 116.255 412.52 140.115C432.172 163.975 468.794 154.431 493.398 140.115C518.003 125.8 554.287 121.982 569.222 140.115" stroke="white" stroke-width="4"/>
<path d="M23.5359 144.711C41.6251 129.441 83.9346 108.063 108.459 144.711C139.114 190.521 189.897 155.209 205.513 144.711C221.13 134.213 250.228 117.988 268.194 144.711C286.16 171.434 328.401 155.209 343.007 144.711C357.613 134.213 393.113 120.851 412.765 144.711C432.417 168.571 469.04 159.026 493.644 144.711C518.248 130.396 554.532 126.577 569.468 144.711" stroke="white" stroke-width="2"/>
<path d="M22.6648 148.408C40.754 133.138 83.0635 111.76 107.588 148.408C138.243 194.218 189.025 158.906 204.642 148.408C220.259 137.91 249.357 121.685 267.323 148.408C285.289 175.131 327.53 158.906 342.136 148.408C356.742 137.91 392.242 124.548 411.894 148.408C431.546 172.268 468.169 162.723 492.773 148.408C517.377 134.093 553.661 130.274 568.597 148.408" stroke="white" stroke-width="2"/>
</mask>
<g mask="url(#mask0_1_132)">
<path d="M202.244 39.9069L190.914 130.357H157.762L170.922 65.8211L142.914 130.357H109.378L111.412 66.3194L94.4015 130.357H61.2495L92.5485 39.9069H136.068L133.317 98.8368L156.932 39.9069H202.244Z" fill="#FAFF00"/>
<path d="M281.893 130.357C281.387 125.623 280.61 119.684 279.563 112.541H238.731L228.133 130.357H196.005L253.159 39.9069H300.263L315.045 130.357H281.893ZM276.847 93.1057C275.659 84.3846 274.387 75.6635 273.028 66.9424L271.865 58.8442C267.097 66.4025 260.011 77.823 250.607 93.1057H276.847Z" fill="#FAFF00"/>
<path d="M386.191 130.357C383.844 123.297 379.732 112.5 373.856 97.9646L355.474 112.417L351.247 130.357H319.375C323.854 114.244 327.748 99.169 331.056 85.1321C334.364 71.0953 337.575 56.0202 340.689 39.9069H372.561L363.959 76.411C383.223 61.2944 397.269 49.1264 406.097 39.9069H447.569L398.089 78.7782C402.145 86.9179 406.759 95.7636 411.932 105.315C417.19 114.867 422.007 123.214 426.383 130.357H386.191Z" fill="#FAFF00"/>
<path d="M472.205 107.558C504.671 107.392 528.288 106.935 543.056 106.187C541.656 109.593 540.441 113.123 539.409 116.777C538.482 120.349 537.372 124.876 536.081 130.357H436.625C441.104 114.244 444.998 99.169 448.306 85.1321C451.614 71.0953 454.825 56.0202 457.939 39.9069H557.395L552.081 62.4572H482.833L480.015 74.4176C484.091 74.5007 490.14 74.5422 498.162 74.5422C511.73 74.5422 525.826 74.293 540.45 73.7947L535.4 95.2237C521.011 94.7254 507.032 94.4762 493.464 94.4762C485.443 94.4762 479.374 94.5177 475.259 94.6008L472.205 107.558Z" fill="#FAFF00"/>
</g>
</svg>
