<svg width="317" height="417" viewBox="0 0 317 417" fill="none" xmlns="http://www.w3.org/2000/svg">
<path d="M255.346 0H63.6543C42.3061 0 25 17.1476 25 38.3003V38.6996C25 59.8523 42.3061 77 63.6543 77H255.346C276.694 77 294 59.8523 294 38.6996V38.3003C294 17.1476 276.694 0 255.346 0Z" fill="white"/>
<path d="M317 258.5C317 346.037 246.037 417 158.5 417C70.9629 417 0 346.037 0 258.5C0 170.963 70.9629 100 158.5 100C246.037 100 317 170.963 317 258.5ZM83.8272 258.5C83.8272 299.741 117.259 333.173 158.5 333.173C199.741 333.173 233.173 299.741 233.173 258.5C233.173 217.259 199.741 183.827 158.5 183.827C117.259 183.827 83.8272 217.259 83.8272 258.5Z" fill="white"/>
</svg>
