<svg width="685" height="188" viewBox="0 0 685 188" fill="none" xmlns="http://www.w3.org/2000/svg">
<g clip-path="url(#clip0_1_395)">
<path d="M681.796 86.935V142.212H681.754V142.712V172.553C681.754 180.138 675.612 186.285 668.034 186.285H667.914C662.489 186.285 657.802 183.132 655.573 178.555L655.335 178.066L654.868 178.344C646.412 183.37 636.486 186.261 625.863 186.261C594.959 186.261 569.929 161.765 569.929 131.564C569.929 131.379 569.931 131.195 569.934 131.01H569.959V130.51V123.427V123.397L569.956 123.367C569.886 122.797 569.846 122.219 569.846 121.637V85.9771C569.846 78.3796 576 72.2214 583.59 72.2214H583.758C591.348 72.2214 597.502 78.3796 597.502 85.9771V121.637C597.502 122.206 597.462 122.772 597.392 123.336L597.388 123.367V123.397V130.504V130.505V130.505V130.505V130.505V130.505V130.505V130.506V130.506V130.506V130.506V130.506V130.506V130.507V130.507V130.507V130.507V130.507V130.508V130.508V130.508V130.508V130.508V130.509V130.509V130.509V130.509V130.509V130.509V130.51V130.51V130.51V130.51V130.51V130.511V130.511V130.511V130.511V130.511V130.512V130.512V130.512V130.512V130.512V130.513V130.513V130.513V130.513V130.513V130.514V130.514V130.514V130.514V130.514V130.515V130.515V130.515V130.515V130.516V130.516V130.516V130.516V130.516V130.517V130.517V130.517V130.517V130.517V130.518V130.518V130.518V130.518V130.518V130.519V130.519V130.519V130.519V130.52V130.52V130.52V130.52V130.52V130.521V130.521V130.521V130.521V130.522V130.522V130.522V130.522V130.522V130.523V130.523V130.523V130.523V130.524V130.524V130.524V130.524V130.524V130.525V130.525V130.525V130.525V130.526V130.526V130.526V130.526V130.526V130.527V130.527V130.527V130.527V130.528V130.528V130.528V130.528V130.528V130.529V130.529V130.529V130.529V130.53V130.53V130.53V130.53V130.531V130.531V130.531V130.531V130.531V130.532V130.532V130.532V130.532V130.533V130.533V130.533V130.533V130.534V130.534V130.534V130.534V130.534V130.535V130.535V130.535V130.535V130.536V130.536V130.536V130.536V130.537V130.537V130.537V130.537V130.537V130.538V130.538V130.538V130.538V130.539V130.539V130.539V130.539V130.54V130.54V130.54V130.54V130.541V130.541V130.541V130.541V130.541V130.542V130.542V130.542V130.542V130.543V130.543V130.543V130.543V130.544V130.544V130.544V130.544V130.545V130.545V130.545V130.545V130.545V130.546V130.546V130.546V130.546V130.547V130.547V130.547V130.547V130.548V130.548V130.548V130.548V130.548V130.549V130.549V130.549V130.549V130.55V130.55V130.55V130.55V130.551V130.551V130.551V130.551V130.551V130.552V130.552V130.552V130.552V130.553V130.553V130.553V130.553V130.554V130.554V130.554V130.554V130.554V130.555V130.555V130.555V130.555V130.556V130.556V130.556V130.556V130.556V130.557V130.557V130.557V130.557V130.558V130.558V130.558V130.558V130.558V130.559V130.559V130.559V130.559V130.56V130.56V130.56V130.56V130.56V130.561V130.561V130.561V130.561V130.562V130.562V130.562V130.562V130.562V130.563V130.563V130.563V130.563V130.563V130.564V130.564V130.564V130.564V130.565V130.565V130.565V130.565V130.565V130.566V130.566V130.566V130.566V130.566V130.567V130.567V130.567V130.567V130.567V130.568V130.568V130.568V130.568V130.569V130.569V130.569V130.569V130.569V130.57V130.57V130.57V130.57V130.57V130.571V130.571V130.571V130.571V130.571V130.572V130.572V130.572V130.572V130.572V130.572V130.573V130.573V130.573V130.573V130.573V130.574V130.574V130.574V130.574V130.574V130.575V130.575V130.575V130.575V130.575V130.575V130.576V130.576V130.576V130.576V130.576V130.577V130.577V130.577V130.577V130.577V130.577V130.578V130.578V130.578V130.578V130.578V130.578V130.579V130.579V130.579V130.579V130.579V130.58V130.58V130.58V130.58V130.58V130.58V130.58V130.581V130.581V130.581V130.581V130.581V130.581V130.582V130.582V130.582V130.582V130.582V130.582V130.583V130.583V130.583V130.583V130.583V130.583V130.583V130.584V130.584V130.584V130.584V130.584V130.584V130.584V130.585V130.585V130.585V130.585V130.585V130.585V130.585V130.586V130.586V130.586V130.586V130.586V130.586V130.586V130.586V130.587V130.587V130.587V130.587V130.587V130.587V130.587V130.587V130.588V130.588V130.588V130.588V130.588V130.588V130.588V130.588V130.589V130.589V130.589V130.589V130.589V130.589V130.589V130.589V130.589V130.589V130.59V130.59V130.59V130.59V130.59V130.59V130.59V130.59V130.59V130.59V130.591V130.591V130.591V130.591V130.591V130.591V130.591V130.591V130.591V130.591V130.591V130.592V130.592V130.592V130.592V130.592V130.592V130.592V130.592V130.592V130.592V130.592V130.592V130.592V130.592V130.593V130.593V130.593V130.593V130.593V130.593V130.593V130.593V130.593V130.593V130.593V130.593V130.593V130.593V130.593V130.593V130.593V130.593V130.593V130.594V130.594V130.594V130.594V130.594V130.594V130.594V130.594V130.594V130.594V130.594V130.594V130.594V130.594V130.594V130.594V130.594V130.594V132.522V132.531L597.389 132.54C597.919 147.508 610.416 159.48 625.755 159.48C640.37 159.48 652.409 148.617 653.975 134.649L653.978 134.622V134.594V86.929C653.978 79.4271 659.947 73.3189 667.39 73.1015H667.974C675.606 73.1015 681.796 79.2956 681.796 86.935Z" stroke="white" stroke-opacity="0.8"/>
<path d="M445.485 86.935V142.212H445.443V142.712V172.553C445.443 180.138 439.302 186.285 431.723 186.285H431.603C426.179 186.285 421.491 183.132 419.262 178.555L419.024 178.066L418.557 178.344C410.102 183.37 400.175 186.261 389.552 186.261C358.649 186.261 333.619 161.765 333.619 131.564C333.619 131.379 333.621 131.195 333.623 131.01H333.649V130.51V123.427V123.397L333.645 123.367C333.575 122.797 333.535 122.219 333.535 121.637V85.9771C333.535 78.3796 339.689 72.2214 347.28 72.2214H347.447C355.038 72.2214 361.192 78.3796 361.192 85.9771V121.637C361.192 122.206 361.151 122.772 361.082 123.336L361.078 123.367V123.397V130.504V130.505V130.505V130.505V130.505V130.505V130.505V130.506V130.506V130.506V130.506V130.506V130.506V130.507V130.507V130.507V130.507V130.507V130.508V130.508V130.508V130.508V130.508V130.509V130.509V130.509V130.509V130.509V130.509V130.51V130.51V130.51V130.51V130.51V130.511V130.511V130.511V130.511V130.511V130.512V130.512V130.512V130.512V130.512V130.513V130.513V130.513V130.513V130.513V130.514V130.514V130.514V130.514V130.514V130.515V130.515V130.515V130.515V130.516V130.516V130.516V130.516V130.516V130.517V130.517V130.517V130.517V130.517V130.518V130.518V130.518V130.518V130.518V130.519V130.519V130.519V130.519V130.52V130.52V130.52V130.52V130.52V130.521V130.521V130.521V130.521V130.522V130.522V130.522V130.522V130.522V130.523V130.523V130.523V130.523V130.524V130.524V130.524V130.524V130.524V130.525V130.525V130.525V130.525V130.526V130.526V130.526V130.526V130.526V130.527V130.527V130.527V130.527V130.528V130.528V130.528V130.528V130.528V130.529V130.529V130.529V130.529V130.53V130.53V130.53V130.53V130.531V130.531V130.531V130.531V130.531V130.532V130.532V130.532V130.532V130.533V130.533V130.533V130.533V130.534V130.534V130.534V130.534V130.534V130.535V130.535V130.535V130.535V130.536V130.536V130.536V130.536V130.537V130.537V130.537V130.537V130.537V130.538V130.538V130.538V130.538V130.539V130.539V130.539V130.539V130.54V130.54V130.54V130.54V130.541V130.541V130.541V130.541V130.541V130.542V130.542V130.542V130.542V130.543V130.543V130.543V130.543V130.544V130.544V130.544V130.544V130.545V130.545V130.545V130.545V130.545V130.546V130.546V130.546V130.546V130.547V130.547V130.547V130.547V130.548V130.548V130.548V130.548V130.548V130.549V130.549V130.549V130.549V130.55V130.55V130.55V130.55V130.551V130.551V130.551V130.551V130.551V130.552V130.552V130.552V130.552V130.553V130.553V130.553V130.553V130.554V130.554V130.554V130.554V130.554V130.555V130.555V130.555V130.555V130.556V130.556V130.556V130.556V130.556V130.557V130.557V130.557V130.557V130.558V130.558V130.558V130.558V130.558V130.559V130.559V130.559V130.559V130.56V130.56V130.56V130.56V130.56V130.561V130.561V130.561V130.561V130.562V130.562V130.562V130.562V130.562V130.563V130.563V130.563V130.563V130.563V130.564V130.564V130.564V130.564V130.565V130.565V130.565V130.565V130.565V130.566V130.566V130.566V130.566V130.566V130.567V130.567V130.567V130.567V130.567V130.568V130.568V130.568V130.568V130.569V130.569V130.569V130.569V130.569V130.57V130.57V130.57V130.57V130.57V130.571V130.571V130.571V130.571V130.571V130.572V130.572V130.572V130.572V130.572V130.572V130.573V130.573V130.573V130.573V130.573V130.574V130.574V130.574V130.574V130.574V130.575V130.575V130.575V130.575V130.575V130.575V130.576V130.576V130.576V130.576V130.576V130.577V130.577V130.577V130.577V130.577V130.577V130.578V130.578V130.578V130.578V130.578V130.578V130.579V130.579V130.579V130.579V130.579V130.58V130.58V130.58V130.58V130.58V130.58V130.58V130.581V130.581V130.581V130.581V130.581V130.581V130.582V130.582V130.582V130.582V130.582V130.582V130.583V130.583V130.583V130.583V130.583V130.583V130.583V130.584V130.584V130.584V130.584V130.584V130.584V130.584V130.585V130.585V130.585V130.585V130.585V130.585V130.585V130.586V130.586V130.586V130.586V130.586V130.586V130.586V130.586V130.587V130.587V130.587V130.587V130.587V130.587V130.587V130.587V130.588V130.588V130.588V130.588V130.588V130.588V130.588V130.588V130.589V130.589V130.589V130.589V130.589V130.589V130.589V130.589V130.589V130.589V130.59V130.59V130.59V130.59V130.59V130.59V130.59V130.59V130.59V130.59V130.591V130.591V130.591V130.591V130.591V130.591V130.591V130.591V130.591V130.591V130.591V130.592V130.592V130.592V130.592V130.592V130.592V130.592V130.592V130.592V130.592V130.592V130.592V130.592V130.592V130.593V130.593V130.593V130.593V130.593V130.593V130.593V130.593V130.593V130.593V130.593V130.593V130.593V130.593V130.593V130.593V130.593V130.593V130.593V130.594V130.594V130.594V130.594V130.594V130.594V130.594V130.594V130.594V130.594V130.594V130.594V130.594V130.594V130.594V130.594V130.594V130.594V132.522V132.531L361.078 132.54C361.608 147.508 374.105 159.48 389.444 159.48C404.059 159.48 416.098 148.617 417.664 134.649L417.668 134.622V134.594V86.929C417.668 79.4271 423.637 73.3189 431.079 73.1015H431.663C439.296 73.1015 445.485 79.2956 445.485 86.935Z" stroke="white" stroke-opacity="0.8"/>
<path d="M319.17 32.9097L319.17 32.9097L315.269 33.1306L315.248 33.0895L314.891 33.1417C310.758 33.745 304.178 35.2396 298.449 38.9534C292.7 42.6798 287.807 48.6449 287.118 58.136L287.117 58.1541V58.1722V66.8238V67.3238H287.617H311.882C319.532 67.3238 325.734 73.5242 325.734 81.1813V81.325C325.734 88.9762 319.532 95.1824 311.882 95.1824H287.617H287.117V95.6824V173.565C287.117 180.569 281.441 186.249 274.443 186.249H272.307C265.309 186.249 259.634 180.569 259.634 173.565V95.6824V95.1824H259.134H240.749C233.105 95.1824 226.903 88.9822 226.903 81.325V81.1813C226.903 73.5298 233.099 67.3238 240.749 67.3238H259.134H259.634V66.8238V58.4056L259.661 58.3153C259.69 58.2174 259.706 58.0817 259.718 57.964C259.732 57.8294 259.747 57.6561 259.763 57.4513C259.77 57.3594 259.778 57.2603 259.786 57.1544C259.814 56.7846 259.849 56.3304 259.897 55.7968C260.018 54.4261 260.221 52.5399 260.599 50.2955C261.355 45.8049 262.811 39.8869 265.718 33.8034C271.523 21.6572 283.12 8.81949 306.594 5.38033L306.596 5.37996L306.596 5.37995L306.597 5.37988L306.599 5.37955L306.608 5.37817L306.646 5.37262C306.679 5.36774 306.729 5.36053 306.794 5.35137C306.924 5.33305 307.114 5.30692 307.356 5.2759C307.838 5.21386 308.522 5.13236 309.327 5.05475C310.939 4.89922 313.024 4.76067 314.941 4.82254L314.962 4.82325L314.984 4.82205L317.593 4.67835L317.593 4.67833C325.226 4.25074 331.762 10.0984 332.19 17.7382L332.22 18.2997L332.22 18.301C332.647 25.9409 326.803 32.4821 319.17 32.9097Z" stroke="white" stroke-opacity="0.8"/>
<path d="M54.5128 117.411L101.532 162.69L101.879 163.031C107.306 168.346 107.398 177.053 102.087 182.483L101.794 182.783L101.794 182.783C96.4834 188.213 87.7845 188.306 82.3583 182.991L76.6754 177.423L76.6749 177.423L33.3499 134.86L32.4995 134.024V135.216V137.936C32.4936 137.94 32.4876 137.944 32.4814 137.949L32.2662 138.098V138.36V172.511C32.2662 180.108 26.1123 186.267 18.5218 186.267C10.9312 186.267 4.77734 180.108 4.77734 172.511V28.691C4.77734 21.0935 10.9312 14.9353 18.5218 14.9353C26.1123 14.9353 32.2662 21.0935 32.2662 28.691V97.8797V99.106L33.1236 98.2294L67.5411 63.0422L67.5411 63.0422C72.8518 57.6118 81.5507 57.5193 86.977 62.8343L86.9836 62.8407L86.9904 62.8469L87.0494 62.9006C92.4692 68.2163 92.5594 76.9179 87.2506 82.3465L54.0596 116.27L53.697 116.641L54.0805 116.99C54.136 117.04 54.4448 117.343 54.506 117.404L54.5059 117.404L54.5128 117.411Z" stroke="white" stroke-opacity="0.8"/>
<path d="M514.569 118.01L561.588 163.289L561.936 163.63C567.362 168.945 567.455 177.651 562.144 183.082L561.851 183.381L561.851 183.381C556.54 188.812 547.841 188.904 542.415 183.589L536.732 178.022L536.732 178.021L493.406 135.458L492.556 134.623V135.815V138.535C492.55 138.539 492.544 138.543 492.538 138.547L492.323 138.696V138.958V173.11C492.323 180.707 486.169 186.865 478.578 186.865C470.988 186.865 464.834 180.707 464.834 173.11V29.2897C464.834 21.6922 470.988 15.534 478.578 15.534C486.169 15.534 492.323 21.6922 492.323 29.2897V98.4785V99.7047L493.18 98.8281L527.598 63.641L527.598 63.6409C532.908 58.2105 541.607 58.118 547.034 63.433L547.04 63.4395L547.047 63.4457L547.106 63.4993C552.526 68.815 552.616 77.5166 547.307 82.9452L514.116 116.869L513.754 117.24L514.137 117.588C514.193 117.639 514.501 117.942 514.563 118.003L514.563 118.003L514.569 118.01Z" stroke="white" stroke-opacity="0.8"/>
</g>
<defs>
<clipPath id="clip0_1_395">
<rect width="685" height="188" fill="white"/>
</clipPath>
</defs>
</svg>
