<?xml version="1.0" encoding="UTF-8"?>
<svg width="118px" height="159px" viewBox="0 0 118 159" version="1.1" xmlns="http://www.w3.org/2000/svg" xmlns:xlink="http://www.w3.org/1999/xlink">
    <!-- Generator: Sketch 63.1 (92452) - https://sketch.com -->
    <title>shortLogo</title>
    <desc>Created with Sketch.</desc>
    <g id="Page-1" stroke="none" stroke-width="1" fill="none" fill-rule="evenodd">
        <g id="shortLogo" fill="#FFFFFF" fill-rule="nonzero">
            <path d="M94.9123,0.5771 L23.768,0.5771 C15.8449,0.5771 9.4219,7.0052 9.4219,14.9346 L9.4219,15.0843 C9.4219,23.0137 15.8449,29.4417 23.768,29.4417 L94.9123,29.4417 C102.835,29.4417 109.258,23.0137 109.258,15.0843 L109.258,14.9346 C109.258,7.0052 102.835,0.5771 94.9123,0.5771 Z" id="Path"></path>
            <path d="M118,100 C118,132.585 91.5848,159 59,159 C26.4152,159 0,132.585 0,100 C0,67.4152 26.4152,41 59,41 C91.5848,41 118,67.4152 118,100 Z M31.2038,100 C31.2038,115.351 43.6486,127.796 59,127.796 C74.3514,127.796 86.7962,115.351 86.7962,100 C86.7962,84.649 74.3514,72.204 59,72.204 C43.6486,72.204 31.2038,84.649 31.2038,100 Z" id="Shape"></path>
        </g>
    </g>
</svg>