<svg width="158" height="99" viewBox="0 0 158 99" fill="none" xmlns="http://www.w3.org/2000/svg">
<path d="M148.816 31.1745C150.826 33.6585 150.107 37.5322 150.069 40.7903C149.924 53.5059 148.808 66.3202 147.504 78.9628C146.777 86.0388 144.562 85.8337 138.11 86.8426C135.814 87.2018 133.347 87.253 132.334 90.1734C131.526 92.4907 132.822 95.1117 132.12 97.2493C130.632 95.2382 128.909 93.4111 126.989 91.8066C120.811 86.0817 111.315 85.4916 103.354 84.8631C92.8531 84.0337 82.4507 82.486 71.9028 81.9687C67.2723 81.7463 67.3452 77.4067 66.986 73.7211C65.7499 59.6866 65.4855 45.5833 66.1947 31.5123C66.3871 26.8904 70.3592 24.9527 74.5235 24.7013C87.0723 23.9186 99.5999 24.7825 112.11 25.582C118.596 25.9925 125.159 26.5013 131.641 26.9374C136.331 27.2539 145.602 27.2067 148.816 31.1788" fill="#DDDDDD"/>
<path d="M146.713 29.4002C148.722 31.8843 148.004 35.7579 147.965 39.0161C147.82 51.7317 146.704 64.546 145.4 77.1886C144.673 84.2645 142.458 84.0594 136.007 85.0684C133.711 85.4275 131.244 85.4788 130.231 88.3991C129.422 90.7164 130.718 93.3375 130.017 95.4751C128.528 93.4639 126.806 91.6369 124.886 90.0324C118.708 84.3074 109.212 83.7173 101.251 83.0889C90.75 82.2594 80.3476 80.7117 69.7997 80.1944C65.1692 79.9721 65.242 75.6324 64.8829 71.9468C63.6466 57.9123 63.3821 43.8091 64.0911 29.738C64.2835 25.1162 68.2556 23.1793 72.4199 22.9271C84.9731 22.1446 97.4961 23.0083 110.007 23.8078C116.493 24.2182 123.056 24.7271 129.538 25.1638C134.228 25.4803 143.498 25.4331 146.713 29.4009" fill="white"/>
<path d="M146.713 29.4002C148.722 31.8843 148.004 35.7579 147.965 39.0161C147.82 51.7317 146.704 64.546 145.4 77.1886C144.673 84.2645 142.458 84.0594 136.007 85.0684C133.711 85.4275 131.244 85.4788 130.231 88.3991C129.422 90.7164 130.718 93.3375 130.017 95.4751C128.528 93.4639 126.806 91.6369 124.886 90.0324C118.708 84.3074 109.212 83.7173 101.251 83.0889C90.75 82.2594 80.3476 80.7117 69.7997 80.1944C65.1692 79.9721 65.242 75.6324 64.8829 71.9468C63.6466 57.9123 63.3821 43.8091 64.0911 29.738C64.2835 25.1162 68.2556 23.1793 72.4199 22.9271C84.9731 22.1446 97.4961 23.0083 110.007 23.8078C116.493 24.2182 123.056 24.7271 129.538 25.1638C134.228 25.4803 143.498 25.4331 146.713 29.4009" stroke="#EAEAEA" stroke-width="0.107721" stroke-miterlimit="10"/>
<path d="M83.4723 18.5787C84.3061 18.4508 85.159 18.5743 85.9223 18.9336C86.7617 19.6016 87.3176 20.5623 87.4786 21.6229C92.0406 38.2721 92.9685 72.5836 89.8474 76.0553C86.3971 79.8863 49.6741 82.9604 48.5967 83.5376C48.5967 83.5376 37.1125 94.342 33.9059 96.189C34.4617 91.9562 36.0521 84.5336 36.3173 80.2924C29.3396 78.3342 23.0375 77.3936 14.6059 74.935C14.1594 74.8541 13.7512 74.6306 13.4425 74.2979C13.1177 73.8576 13.31 73.2547 13.2545 72.7116C12.3181 63.4978 11.4663 33.65 11.9803 32.2817C12.1727 31.7647 20.3477 29.9002 31.2547 27.6898C39.3441 26.0524 48.947 24.2222 57.9385 22.6019C64.3177 21.456 70.3419 20.4298 75.2503 19.6689C78.7692 19.126 81.6936 18.7326 83.4723 18.5828" fill="#DDDDDD"/>
<path d="M82.228 16.6291C83.0617 16.5012 83.9147 16.6248 84.6778 16.984C85.5173 17.652 86.0732 18.6126 86.2342 19.6733C90.7962 36.3225 91.7241 70.634 88.6028 74.1057C85.1524 77.9367 48.4295 81.0108 47.352 81.588C47.352 81.588 35.8679 92.3924 32.6612 94.2394C33.2171 90.0066 34.8075 82.584 35.0727 78.3428C28.0949 76.3846 21.7926 75.4436 13.3611 72.9856C12.9145 72.9048 12.5063 72.6812 12.1977 72.3485C11.8728 71.9082 12.0652 71.3054 12.0096 70.7622C11.0733 61.5484 10.2214 31.7006 10.7355 30.3323C10.9278 29.8153 19.1028 27.9508 30.0098 25.7404C38.0996 24.1037 47.7026 22.2724 56.6942 20.6525C63.0735 19.5066 69.102 18.4804 74.0061 17.7195C77.5249 17.1766 80.4493 16.7832 82.228 16.6334" fill="white"/>
<path d="M91.1168 50.5558C90.8732 44.7453 90.4072 38.9262 89.6632 33.15C89.3084 30.4093 88.898 27.673 88.3762 24.958C88.1452 23.7694 87.8932 22.5808 87.615 21.4006C87.3845 20.1257 87.0072 18.8818 86.4906 17.6937C85.6526 16.0305 84.0749 15.6757 82.3434 15.7655C79.3125 16.0219 76.2892 16.5178 73.2801 16.9882C68.6839 17.7107 64.1004 18.5059 59.5134 19.3184C54.2279 20.2633 48.9484 21.241 43.6751 22.2514C38.6256 23.2177 33.5818 24.2168 28.5438 25.2486C24.6615 26.0525 20.7792 26.8645 16.9228 27.7883C15.7129 28.0748 14.4987 28.37 13.3014 28.7119C12.6459 28.8503 12.0128 29.079 11.4202 29.3916C10.6849 29.8576 10.8045 30.9428 10.7788 31.7046C10.7276 33.4447 10.7446 35.1848 10.7659 36.925C10.8258 42.3849 10.9882 47.8406 11.1936 53.2962C11.3903 58.414 11.5954 63.5362 12.006 68.637C12.0402 69.073 12.0787 69.5092 12.1215 69.9454C12.0788 70.6655 12.1466 71.3879 12.3225 72.0875C12.5586 72.4758 12.8799 72.8053 13.2621 73.0512C13.6443 73.2972 14.0774 73.453 14.5286 73.5071C15.6489 73.8319 16.7777 74.1426 17.9149 74.4391C21.8911 75.4865 25.9188 76.3332 29.925 77.2695C31.5882 77.6629 33.2428 78.0734 34.889 78.5267C34.4829 83.6145 33.2258 88.6128 32.5544 93.6664C32.4683 94.3343 33.3326 94.6969 33.8329 94.406C35.3473 93.4315 36.7762 92.3302 38.1042 91.1139C39.9256 89.5704 41.7086 87.9755 43.4787 86.3679C44.8938 85.0851 46.2991 83.7896 47.6944 82.4813C47.9413 82.2899 48.1769 82.0843 48.4 81.8656C48.4703 81.8459 48.5416 81.8302 48.6137 81.8186C49.6694 81.6219 50.2856 81.5706 51.4485 81.4295C53.0988 81.2285 54.7448 81.0361 56.3953 80.8394C60.8118 80.3135 65.2243 79.7747 69.6411 79.1506C73.8995 78.5435 78.1666 77.8978 82.3567 76.9358C83.8748 76.6155 85.368 76.1868 86.8248 75.6531C87.8357 75.371 88.7441 74.804 89.4415 74.0198C90.0011 73.0827 90.3565 72.0381 90.4847 70.9543C90.7887 69.2091 90.9885 67.4473 91.0832 65.6783C91.3618 60.643 91.3733 55.5964 91.1175 50.5599M12.3565 30.8155C12.2703 30.9232 12.2624 30.8753 12.3565 30.8155ZM89.4922 63.374C89.4196 65.3022 89.3041 67.239 89.0518 69.1545C88.9706 69.7702 88.8465 70.5184 88.7013 71.1768C88.594 71.6534 88.4583 72.1231 88.2952 72.5835C88.2952 72.5878 88.2053 72.7715 88.1874 72.8015C88.1489 72.8741 88.1062 72.9426 88.0677 73.0152L88.0461 73.0583L88.0291 73.0712C87.9645 73.1311 87.905 73.191 87.8453 73.2509L87.8154 73.2808L87.7469 73.3239C87.67 73.3709 87.5971 73.4222 87.5159 73.465C87.2989 73.5932 87.0748 73.7088 86.8446 73.8115L86.7035 73.8761L86.6173 73.9104C86.4847 73.966 86.3522 74.0172 86.2196 74.0642C85.899 74.184 85.5698 74.2951 85.2404 74.402C84.5221 74.6286 83.7909 74.821 83.0556 75.0091C79.0794 76.0053 75.0091 76.6465 70.96 77.2409C63.6188 78.3269 56.2264 78.9896 48.8895 80.05C48.3105 80.0539 47.7449 80.2246 47.2605 80.5417C46.3328 81.3455 45.4648 82.2262 44.5625 83.0557C41.3346 86.04 38.0937 89.0799 34.6132 91.7735L34.5055 91.8548C35.2324 87.2029 36.3141 82.5897 36.622 77.8864C36.6213 77.6997 36.5599 77.5183 36.4473 77.3695C36.3346 77.2207 36.1767 77.1125 35.9972 77.0612C32.2604 76.0137 28.4679 75.1927 24.6841 74.3292C22.6488 73.8675 20.6224 73.3843 18.6043 72.8584C17.5227 72.5761 16.4455 72.2826 15.3727 71.9776C14.9127 71.9017 14.4662 71.759 14.0473 71.5543C13.6925 71.302 13.8806 70.7462 13.8549 70.3528C13.5641 65.7854 13.2222 61.2329 13.0255 56.6582C12.786 51.0871 12.615 45.5132 12.5125 39.9364C12.4739 37.8328 12.444 35.7293 12.4526 33.6257C12.4526 32.9287 12.4612 32.2318 12.4869 31.5359C12.4955 31.3008 12.5039 31.0699 12.5211 30.8346L12.5254 30.7448L12.5939 30.7192C12.7478 30.6636 12.8975 30.6114 13.0513 30.5653C14.0475 30.2447 15.0651 29.9925 16.0785 29.7445C19.5863 28.8743 23.1224 28.1224 26.6584 27.3822C31.43 26.3817 36.2101 25.4211 40.9987 24.5004C46.198 23.4914 51.4057 22.5137 56.6217 21.5674C61.3505 20.7123 66.0796 19.8785 70.8252 19.1003C74.1772 18.5531 77.5593 18.0059 80.7872 17.6295C81.3043 17.5696 81.8263 17.514 82.3479 17.4714C82.7362 17.3843 83.1385 17.3804 83.5284 17.46C83.9183 17.5396 84.2869 17.7008 84.61 17.9331C85.0809 18.5359 85.3926 19.2475 85.5164 20.0024C85.8156 21.1141 86.0809 22.2342 86.3245 23.3588C86.859 25.8428 87.2865 28.3484 87.6542 30.8624C88.4751 36.4977 88.9839 42.1841 89.2961 47.875C89.574 53.0357 89.7022 58.2178 89.5055 63.3783" fill="#CECECE"/>
<g opacity="0.51">
<mask id="mask0_971_75488" style="mask-type:luminance" maskUnits="userSpaceOnUse" x="11" y="16" width="81" height="79">
<path d="M91.3008 16.2836H11.2739V94.5087H91.3008V16.2836Z" fill="white"/>
</mask>
<g mask="url(#mask0_971_75488)">
<path d="M91.121 50.8507C90.8774 45.0786 90.4155 39.2981 89.6759 33.5602C89.3253 30.8409 88.9147 28.1259 88.3974 25.4281C88.1665 24.2432 87.9185 23.0637 87.6406 21.8923C87.4109 20.6265 87.0364 19.3913 86.5246 18.211C85.6865 16.5564 84.1218 16.2057 82.403 16.2955C79.3889 16.5478 76.3874 17.0395 73.3988 17.5089C68.8314 18.2272 64.2789 19.014 59.7212 19.8262C54.4707 20.7625 49.2274 21.7331 43.9913 22.7379C38.9718 23.6956 33.9592 24.6876 28.9535 25.7138C25.0977 26.5099 21.2454 27.3223 17.4101 28.2379C16.2085 28.5245 15.0029 28.8151 13.8143 29.1529C13.1641 29.2938 12.5357 29.521 11.9458 29.8285C11.2146 30.2902 11.3344 31.372 11.3087 32.1288C11.2575 33.8562 11.2745 35.5877 11.2958 37.3152C11.3557 42.7365 11.5181 48.1579 11.7235 53.5752C11.9115 58.6547 12.1169 63.7426 12.5273 68.8135C12.5615 69.2443 12.5999 69.6815 12.6428 70.1132C12.5989 70.8274 12.6652 71.5441 12.8395 72.2381C13.0746 72.6237 13.3941 72.9509 13.7739 73.1952C14.1538 73.4394 14.5841 73.5943 15.0324 73.6482C16.1484 73.9731 17.2701 74.2823 18.3974 74.5759C22.348 75.615 26.3501 76.4528 30.3263 77.3891C31.9809 77.7739 33.6225 78.1843 35.2599 78.6333C34.8538 83.6872 33.6053 88.6514 32.9426 93.6712C32.8527 94.3339 33.7121 94.6973 34.2124 94.4065C35.715 93.4381 37.1338 92.3454 38.4538 91.14C40.2625 89.6049 42.0368 88.0188 43.794 86.4239C45.1964 85.1498 46.5916 83.8628 47.9798 82.563C48.2272 82.3753 48.4615 82.171 48.6811 81.9516C48.75 81.9323 48.8199 81.9166 48.8905 81.9046C49.9423 81.7122 50.5537 81.6609 51.7128 81.5198C53.3501 81.3187 54.9875 81.1235 56.6249 80.934C61.0117 80.4081 65.3934 79.8736 69.7808 79.2536C74.0136 78.6551 78.2507 78.0094 82.4152 77.0561C83.923 76.7372 85.4061 76.3114 86.8534 75.7819C87.8581 75.499 88.7614 74.9354 89.4572 74.1573C90.0125 73.2267 90.3649 72.1893 90.4913 71.1131C90.7904 69.3788 90.9874 67.6285 91.0814 65.8712C91.3594 60.8699 91.3722 55.8575 91.12 50.8548M12.8737 31.2429C12.7925 31.3506 12.7839 31.3028 12.8737 31.2429ZM89.505 63.5834C89.4324 65.4989 89.3169 67.4228 89.0647 69.3256C88.9877 69.937 88.8636 70.6809 88.7182 71.335C88.6109 71.8088 88.4753 72.2757 88.3121 72.7332L88.2096 72.9512C88.171 73.0198 88.1283 73.088 88.0898 73.1606L88.0682 73.1992L88.0512 73.2162C87.9913 73.2761 87.9314 73.336 87.8715 73.3916L87.8416 73.4216L87.7731 73.4646C87.6962 73.5116 87.6233 73.5629 87.5421 73.6101C87.3258 73.736 87.1028 73.8502 86.8743 73.9522L86.7331 74.0121L86.6519 74.0463C86.5193 74.1019 86.3868 74.1532 86.2542 74.2002C85.9336 74.3199 85.6079 74.4311 85.2847 74.5337C84.5664 74.7603 83.8395 74.9527 83.1126 75.1408C79.1621 76.1284 75.1217 76.7654 71.094 77.3598C63.804 78.437 56.4585 79.0957 49.1688 80.1474C48.5933 80.1524 48.0311 80.3215 47.5483 80.6348C46.6333 81.4343 45.7653 82.3066 44.8718 83.1318C41.6617 86.099 38.4456 89.1176 34.9867 91.794L34.8842 91.8709C35.6067 87.2534 36.6799 82.6698 36.9877 77.9965C36.9862 77.811 36.9244 77.6311 36.8117 77.4838C36.6991 77.3364 36.5415 77.2297 36.3629 77.1797C32.6517 76.1366 28.8806 75.3241 25.1225 74.4652C23.1044 74.0035 21.0907 73.5245 19.0853 73.0029C18.0122 72.725 16.9391 72.4301 15.8753 72.1265C15.4177 72.054 14.9738 71.9127 14.5585 71.7075C14.2036 71.4552 14.3917 70.908 14.3661 70.5146C14.0795 65.9782 13.7376 61.4546 13.5409 56.9096C13.3058 51.3812 13.1362 45.8458 13.0321 40.3033C12.9935 38.2136 12.9635 36.1218 12.9722 34.0353C12.9722 33.3426 12.9808 32.65 13.0064 31.9573C13.015 31.7264 13.0234 31.4956 13.0407 31.2647L13.045 31.1705L13.1135 31.1449L13.5709 30.9911C14.5585 30.6789 15.5676 30.4266 16.5724 30.1786C20.0568 29.3151 23.5713 28.5708 27.0815 27.8353C31.8231 26.8391 36.5719 25.8839 41.3278 24.9699C46.497 23.9694 51.6705 22.9988 56.8483 22.0582C61.5471 21.2074 66.2461 20.3777 70.9619 19.6082C74.2926 19.0609 77.649 18.5178 80.8557 18.146C81.3727 18.0861 81.8898 18.0348 82.4068 17.9878C82.7929 17.9036 83.1923 17.9008 83.5795 17.9796C83.9668 18.0583 84.3333 18.2169 84.6558 18.4452C85.1216 19.0454 85.4302 19.7523 85.5538 20.5018C85.8531 21.6049 86.114 22.7166 86.3576 23.8369C86.8921 26.3039 87.3153 28.792 87.6787 31.2892C88.4952 36.886 88.9998 42.534 89.3077 48.1907C89.5856 53.3128 89.7138 58.4606 89.5171 63.587" fill="#CECECE"/>
</g>
</g>
<path d="M91.1127 50.2351C90.8647 44.3818 90.3944 38.5151 89.6418 32.7009C89.2827 29.939 88.8637 27.1856 88.3378 24.4495C88.1025 23.248 87.8461 22.0551 87.5682 20.8624C87.3338 19.5781 86.9506 18.3255 86.4264 17.1299C85.5756 15.4539 83.9764 15.0989 82.2278 15.1887C79.1539 15.4449 76.0925 15.9449 73.0483 16.4195C68.3921 17.1464 63.7446 17.946 59.1014 18.7679C53.7484 19.7171 48.4025 20.7019 43.0637 21.7222C37.9458 22.6965 32.835 23.7037 27.7315 24.744C23.8014 25.5478 19.873 26.3678 15.9651 27.2966C14.7371 27.5874 13.5151 27.8824 12.2966 28.2286C11.6356 28.3689 10.9969 28.5991 10.3983 28.9126C9.64576 29.3829 9.76555 30.4774 9.74422 31.2428C9.68863 32.9959 9.71427 34.753 9.73129 36.5018C9.79119 42.0044 9.95363 47.5029 10.1622 52.9969C10.3589 58.149 10.564 63.3097 10.983 68.4489L11.0985 69.7699C11.0556 70.4944 11.1249 71.2211 11.3038 71.9244C11.5444 72.3172 11.8712 72.6502 12.2593 72.8983C12.6474 73.1464 13.0869 73.3031 13.5444 73.3566C14.6731 73.6815 15.819 73.998 16.9734 74.2929C20.9968 75.3486 25.0755 76.1998 29.1332 77.1447C30.8177 77.5381 32.4941 77.9529 34.1612 78.4103C33.7507 83.5367 32.4766 88.569 31.7967 93.6612C31.7068 94.3325 32.5835 94.7003 33.0921 94.4051C34.6264 93.4262 36.074 92.3176 37.4191 91.0916C39.2617 89.5353 41.0704 87.9276 42.8661 86.3116C44.2942 85.0161 45.7165 83.7106 47.1331 82.3951C47.3829 82.2024 47.6213 81.9954 47.8471 81.775C47.9174 81.7553 47.9888 81.7396 48.0608 81.7281C49.1296 81.5314 49.754 81.4801 50.934 81.3347C52.6015 81.1337 54.2733 80.9413 55.9449 80.7403C60.413 80.2101 64.8858 79.6715 69.3575 79.0383C73.6715 78.4312 77.9942 77.7771 82.2399 76.8065C83.7765 76.4848 85.2884 76.0547 86.7642 75.5195C87.7872 75.2343 88.7069 74.6615 89.4141 73.8692C89.982 72.9271 90.342 71.8746 90.4698 70.7821C90.7774 69.0243 90.9789 67.2496 91.073 65.4676C91.3595 60.3954 91.3724 55.3115 91.1116 50.2379M11.3389 30.3494C11.2577 30.4571 11.2448 30.405 11.3389 30.3494ZM89.4667 63.1475C89.3941 65.0929 89.2743 67.0424 89.0177 68.9709C88.9365 69.5909 88.8124 70.3432 88.6629 71.0102C88.5561 71.4902 88.419 71.9629 88.2525 72.4255L88.1447 72.6478C88.1062 72.7163 88.0635 72.7846 88.025 72.8572L87.9993 72.9003L87.9823 72.9173C87.9224 72.9772 87.8625 73.0371 87.7985 73.0968L87.7686 73.1267L87.7001 73.1698C87.6232 73.2168 87.5462 73.2681 87.465 73.3153C87.2456 73.4443 87.0186 73.56 86.7853 73.6617L86.6399 73.7263L86.5587 73.7606C86.4218 73.8162 86.2893 73.8683 86.1525 73.9187C85.8277 74.0385 85.4942 74.1497 85.165 74.2565C84.4337 74.4832 83.6941 74.6799 82.9502 74.8723C78.9225 75.8728 74.8009 76.5185 70.6963 77.117C63.2609 78.2114 55.7745 78.8784 48.3392 79.9474C47.7543 79.9512 47.1828 80.1232 46.693 80.443C45.761 81.2511 44.8717 82.1361 43.9651 82.9742C40.6903 85.9798 37.4107 89.0413 33.8824 91.7606L33.7798 91.8375C34.511 87.1557 35.6098 82.5039 35.9177 77.7665C35.9163 77.5784 35.8538 77.3958 35.7397 77.2462C35.6256 77.0966 35.466 76.9881 35.2849 76.9371C31.5011 75.8767 27.6582 75.0558 23.8264 74.1835C21.7698 73.7175 19.7175 73.2299 17.6695 72.7041C16.5748 72.4175 15.4804 72.1224 14.3948 71.8104C13.9283 71.7385 13.4755 71.5957 13.0521 71.3871C12.6973 71.1348 12.8811 70.5746 12.8597 70.1771C12.5648 65.5766 12.2227 60.9889 12.0173 56.3798C11.7779 50.7702 11.6041 45.1564 11.4958 39.5382C11.4572 37.4176 11.4273 35.2968 11.4359 33.1805C11.4359 32.4749 11.4488 31.7739 11.4701 31.0726C11.4787 30.8374 11.4871 30.6023 11.5087 30.3671C11.5081 30.3356 11.5095 30.3042 11.513 30.2729L11.5858 30.2458C11.7356 30.1945 11.8937 30.138 12.0432 30.0919C13.0523 29.7714 14.0826 29.5191 15.1087 29.2668C18.6672 28.3955 22.2459 27.6389 25.8246 26.8905C30.656 25.8815 35.4973 24.9138 40.3487 23.9874C45.6162 22.9698 50.8909 21.985 56.1727 21.033C60.9613 20.1693 65.7543 19.3272 70.5599 18.549C73.9546 17.9931 77.3795 17.4459 80.6504 17.0654C81.1763 17.0055 81.7022 16.95 82.2281 16.9073C82.6218 16.8205 83.0294 16.8167 83.4247 16.8962C83.82 16.9757 84.1944 17.1367 84.524 17.369C84.9978 17.9776 85.3123 18.6948 85.439 19.4556C85.7426 20.5759 86.0119 21.7046 86.2557 22.838C86.803 25.3393 87.2349 27.8619 87.6068 30.3972C88.4362 36.0752 88.9535 41.8045 89.2657 47.5337C89.5479 52.7328 89.6804 57.9534 89.4794 63.1533" fill="#6532B3"/>
<path d="M82.818 1.64753C86.401 0.822386 90.4158 1.4894 93.0153 4.24706C94.192 5.45816 94.9438 7.01854 95.1575 8.69357C95.3798 10.7416 94.8539 12.7896 95.1917 14.8376C95.2297 15.3502 95.4442 15.8337 95.7988 16.2058C96.0087 16.3674 96.2516 16.4807 96.5103 16.5376C96.769 16.5945 97.037 16.5936 97.2953 16.535C98.4925 16.3683 99.6854 16.1332 100.882 15.9279C101.712 15.7868 101.361 14.5213 100.532 14.6624C99.4502 14.8462 98.3684 15.0345 97.2867 15.2182C96.9146 15.2781 96.6539 15.3423 96.5428 14.9274C96.4238 14.4217 96.3663 13.9035 96.3717 13.384C96.3418 11.4002 96.7479 9.41983 96.2605 7.45801C95.7805 5.75848 94.8623 4.21495 93.5979 2.98206C92.3335 1.74917 90.7672 0.870228 89.0561 0.433298C86.8977 -0.126533 84.6344 -0.144148 82.4675 0.382022C81.6423 0.570104 81.9935 1.83583 82.818 1.64753Z" fill="#6532B3"/>
<path d="M14.1436 13.2085C11.6969 13.5383 9.43971 14.7046 7.75509 16.5093C5.95405 18.4692 4.7848 20.926 4.39958 23.5597C4.15542 25.1094 4.1137 26.6842 4.27549 28.2447C4.27901 28.4171 4.34905 28.5814 4.47096 28.7033C4.59287 28.8252 4.7572 28.8952 4.92957 28.8988C5.10331 28.8983 5.26985 28.8293 5.39313 28.7069C5.5164 28.5845 5.58648 28.4184 5.58818 28.2447C5.10925 23.533 6.49454 18.3595 10.7446 15.7514C11.7795 15.1044 12.9395 14.6834 14.1486 14.5158C14.3208 14.5098 14.4844 14.4383 14.6058 14.316C14.7273 14.1937 14.7977 14.0298 14.8026 13.8575C14.8019 13.6842 14.7328 13.5183 14.6103 13.3958C14.4877 13.2733 14.3218 13.2041 14.1486 13.2034" fill="#6532B3"/>
<path d="M62.6888 87.4457C63.4525 87.0584 64.288 86.8328 65.1429 86.783C65.5079 86.8053 65.8616 86.9188 66.1715 87.113C66.4815 87.3072 66.7378 87.5759 66.9172 87.8946C67.8408 89.3056 67.999 91.0586 68.3967 92.6619C68.672 94.1445 69.3975 95.5061 70.4746 96.5614C71.8257 97.7158 73.6257 97.8612 75.3221 98.0153C77.5114 98.209 79.7115 98.2491 81.9064 98.135C82.7488 98.0919 82.7488 96.7797 81.9064 96.8267C79.9401 96.9257 77.9696 96.9028 76.0061 96.7581C74.4284 96.6384 72.4231 96.6384 71.2088 95.4627C70.2342 94.3041 69.6232 92.8836 69.4526 91.3792C69.2435 89.6837 68.6178 88.0664 67.6312 86.6718C67.3429 86.3245 66.9867 86.0396 66.5846 85.8345C66.1825 85.6294 65.7428 85.5084 65.2924 85.4789C64.2682 85.4825 63.2586 85.7225 62.3423 86.1801C62.1775 86.2315 62.0385 86.3436 61.9535 86.4939C61.8686 86.6441 61.844 86.821 61.8849 86.9887C61.9315 87.1567 62.0426 87.2995 62.1939 87.386C62.3453 87.4724 62.5247 87.4956 62.6931 87.4504" fill="#6532B3"/>
<path d="M151.753 67.2777C151.758 73.5671 151.753 80.3867 148.401 85.9535C147.572 87.3345 146.499 88.7924 144.84 89.1688C144.015 89.3526 144.366 90.6226 145.19 90.4343C146.744 89.9724 148.071 88.95 148.914 87.5653C149.869 86.1765 150.638 84.6687 151.201 83.0802C152.283 79.8619 152.877 76.4995 152.962 73.1052C153.056 71.1641 153.065 69.2186 153.065 67.2775C153.056 67.1101 152.983 66.9527 152.861 66.8374C152.739 66.7222 152.578 66.658 152.411 66.658C152.243 66.658 152.082 66.7222 151.96 66.8374C151.838 66.9527 151.766 67.1101 151.756 67.2775" fill="#6532B3"/>
<path d="M139.901 90.3359L138.537 90.8489C138.372 90.8991 138.232 91.0109 138.147 91.1613C138.061 91.3118 138.037 91.4892 138.079 91.657C138.126 91.8241 138.238 91.9658 138.389 92.0514C138.54 92.1369 138.719 92.1596 138.887 92.1144L140.252 91.6008C140.417 91.5504 140.557 91.4384 140.642 91.288C140.727 91.1376 140.751 90.9603 140.709 90.7927C140.662 90.6255 140.55 90.4839 140.399 90.3983C140.248 90.3127 140.069 90.2901 139.901 90.3353" fill="#6532B3"/>
<path d="M143.647 23.9404C146.164 24.2638 148.521 25.3568 150.394 27.0701C152.18 29.0595 153.208 31.6151 153.297 34.2874C153.4 36.0225 153.381 37.7626 153.241 39.4951C153.19 40.3416 154.502 40.3375 154.554 39.4951C154.926 36.3894 154.673 33.2406 153.81 30.2341C152.907 27.5654 150.986 25.3616 148.465 24.1028C147.054 23.4149 145.551 22.9353 144.002 22.679C143.176 22.5335 142.822 23.7993 143.651 23.9445" fill="#6532B3"/>
<path d="M4.44675 32.9019L4.46377 35.4502C4.47381 35.6168 4.5471 35.7734 4.66868 35.8879C4.79026 36.0024 4.95096 36.0661 5.11796 36.0661C5.28496 36.0661 5.44565 36.0024 5.56724 35.8879C5.68882 35.7734 5.76211 35.6168 5.77215 35.4502L5.75922 32.9019C5.75009 32.734 5.67696 32.576 5.55488 32.4603C5.43279 32.3447 5.27103 32.2803 5.10288 32.2803C4.93473 32.2803 4.77297 32.3447 4.65088 32.4603C4.52879 32.576 4.45588 32.734 4.44675 32.9019Z" fill="#6532B3"/>
<path d="M103.418 15.154L105.449 14.6242C105.532 14.6012 105.61 14.5619 105.679 14.5087C105.747 14.4555 105.804 14.3894 105.847 14.3141C105.89 14.2388 105.917 14.1558 105.928 14.0698C105.938 13.9839 105.932 13.8967 105.909 13.8133C105.886 13.7298 105.847 13.6517 105.793 13.5834C105.74 13.5151 105.674 13.458 105.599 13.4152C105.524 13.3725 105.441 13.345 105.355 13.3344C105.269 13.3237 105.182 13.3301 105.098 13.3531L103.067 13.8883C102.904 13.9388 102.767 14.0509 102.685 14.2008C102.604 14.3506 102.583 14.5265 102.629 14.691C102.674 14.8556 102.782 14.9959 102.93 15.0823C103.077 15.1687 103.252 15.1943 103.418 15.1538" fill="#6532B3"/>
<path d="M7.84112 47.8536C7.15935 48.0943 6.54014 48.4846 6.02894 48.9959C5.51774 49.5071 5.12754 50.1264 4.88698 50.8082C4.64639 50.1264 4.25615 49.5071 3.74492 48.9958C3.23368 48.4845 2.61442 48.0943 1.93262 47.8536C2.61442 47.613 3.23368 47.2227 3.74492 46.7114C4.25615 46.2002 4.64639 45.5809 4.88698 44.899C5.12754 45.5808 5.51774 46.2001 6.02894 46.7114C6.54014 47.2227 7.15935 47.613 7.84112 47.8536Z" fill="#6532B3"/>
<path d="M144.271 16.2827C143.589 16.5234 142.97 16.9137 142.459 17.425C141.948 17.9363 141.558 18.5555 141.317 19.2373C141.077 18.5554 140.686 17.9361 140.175 17.4248C139.663 16.9135 139.044 16.5233 138.362 16.2827C139.044 16.0422 139.663 15.652 140.175 15.1407C140.686 14.6295 141.077 14.0102 141.317 13.3284C141.558 14.0101 141.948 14.6293 142.459 15.1406C142.97 15.6518 143.589 16.0421 144.271 16.2827Z" fill="#6532B3"/>
<path d="M91.7198 91.8363C91.038 92.077 90.4187 92.4673 89.9074 92.9786C89.3961 93.4899 89.0059 94.1093 88.7653 94.7911C88.5247 94.1093 88.1345 93.4899 87.6233 92.9786C87.112 92.4673 86.4927 92.077 85.8109 91.8363C86.4927 91.5958 87.1119 91.2055 87.6231 90.6943C88.1344 90.1831 88.5246 89.5639 88.7653 88.8822C89.0059 89.564 89.3962 90.1832 89.9075 90.6944C90.4188 91.2056 91.038 91.5958 91.7198 91.8363Z" fill="#6532B3"/>
<path d="M3.87365 41.4703C3.42633 41.6274 3.02003 41.883 2.68479 42.2182C2.34954 42.5535 2.09392 42.9598 1.93683 43.4071C1.42315 43.4071 0.930509 43.203 0.567283 42.8398C0.204058 42.4766 0 41.984 0 41.4703C0 40.9566 0.204058 40.464 0.567283 40.1007C0.930509 39.7375 1.42315 39.5334 1.93683 39.5334C2.09392 39.9808 2.34954 40.3871 2.68479 40.7223C3.02003 41.0576 3.42633 41.3132 3.87365 41.4703Z" fill="#6532B3"/>
<path d="M145.69 9.4847C145.694 9.70144 145.654 9.91671 145.575 10.1182C145.495 10.3198 145.376 10.5036 145.225 10.6592C144.92 10.9735 144.503 11.1539 144.066 11.1607C143.628 11.1675 143.205 11.0002 142.891 10.6955C142.577 10.3908 142.396 9.97369 142.39 9.53598V9.4847C142.383 9.04699 142.55 8.62451 142.855 8.31019C143.16 7.99587 143.577 7.81547 144.014 7.80867C144.452 7.80187 144.875 7.96923 145.189 8.27393C145.503 8.57863 145.684 8.99572 145.69 9.43343V9.4847Z" fill="#6532B3"/>
<path d="M137.216 11.8188C137.224 11.9367 137.208 12.055 137.17 12.1668C137.132 12.2786 137.072 12.3819 136.994 12.4706C136.916 12.5593 136.821 12.6318 136.715 12.684C136.609 12.7361 136.494 12.7668 136.376 12.7744C136.258 12.782 136.14 12.7663 136.028 12.7282C135.916 12.69 135.813 12.6303 135.724 12.5523C135.636 12.4743 135.563 12.3795 135.511 12.2735C135.459 12.1675 135.428 12.0522 135.42 11.9343V11.9265C135.416 11.8908 135.416 11.8546 135.42 11.8188C135.433 11.5894 135.534 11.3735 135.7 11.2156C135.867 11.0577 136.089 10.9697 136.318 10.9697C136.548 10.9697 136.769 11.0577 136.936 11.2156C137.103 11.3735 137.203 11.5894 137.216 11.8188Z" fill="#6532B3"/>
<path d="M92.1091 87.9757C92.2874 87.9753 92.4617 88.0278 92.61 88.1265C92.7584 88.2253 92.8741 88.3658 92.9425 88.5304C93.0109 88.6949 93.0289 88.8761 92.9942 89.0509C92.9596 89.2257 92.8738 89.3863 92.7478 89.5123C92.6218 89.6383 92.4612 89.7241 92.2864 89.7588C92.1116 89.7934 91.9304 89.7754 91.7658 89.707C91.6013 89.6386 91.4607 89.5229 91.362 89.3746C91.2632 89.2262 91.2108 89.0519 91.2112 88.8737C91.2112 88.7557 91.2344 88.639 91.2795 88.53C91.3246 88.421 91.3907 88.322 91.4741 88.2387C91.5575 88.1553 91.6565 88.0891 91.7655 88.044C91.8744 87.9989 91.9912 87.9757 92.1091 87.9757Z" fill="#231F20"/>
<path d="M19.4724 62.9194L19.1902 47.4291L21.8966 46.9032L22.0291 54.0306L27.2669 45.8596L30.5164 45.2268L26.292 51.8112L31.504 60.5797L28.6386 61.1355L24.6887 54.2995L22.1105 58.3304L22.179 62.3922L19.4724 62.9194Z" fill="#DDDDDD"/>
<path d="M37.8391 59.6158C36.4923 59.8767 35.3634 59.6671 34.4566 58.9787C33.5502 58.2989 32.9502 57.2058 32.6566 55.6993C32.4023 54.5022 32.42 53.2633 32.7083 52.074C32.968 51.0291 33.5092 50.0753 34.2731 49.3164C35.0476 48.5665 36.0291 48.066 37.0908 47.8794C38.3516 47.6309 39.439 47.8532 40.3531 48.5464C41.2637 49.239 41.8538 50.2914 42.1274 51.689C42.3897 52.9074 42.3809 54.1686 42.1018 55.3832C41.8611 56.4366 41.3362 57.4037 40.584 58.1794C39.8378 58.9282 38.8796 59.4295 37.8391 59.6158ZM37.5482 57.0723C38.0882 56.9742 38.576 56.6879 38.9249 56.2642C39.3072 55.7958 39.5606 55.2358 39.6602 54.6395C39.7818 53.9206 39.7672 53.1852 39.6171 52.4717C39.4674 51.7022 39.181 51.1334 38.7663 50.7697C38.5577 50.5901 38.3091 50.463 38.0414 50.3991C37.7736 50.3351 37.4945 50.3361 37.2272 50.402C36.6921 50.5034 36.2104 50.7913 35.8675 51.2144C35.4861 51.6849 35.2328 52.2461 35.1322 52.8434C35.0059 53.5514 35.0161 54.277 35.1622 54.9812C35.3203 55.7721 35.6026 56.3495 36.0173 56.7127C36.2258 56.889 36.4731 57.0135 36.739 57.0759C37.0048 57.1383 37.2817 57.1369 37.5469 57.0718" fill="#DDDDDD"/>
<path d="M45.1329 57.9312L44.9705 48.9688L43.504 49.2553L43.4441 46.9124L44.9319 46.6217L44.8977 44.8387C44.8547 44.0732 45.0851 43.3173 45.5477 42.7059C46.0219 42.1289 46.6912 41.7456 47.4289 41.6287C47.7925 41.5613 48.163 41.5396 48.532 41.564C48.9238 41.5901 49.3112 41.6618 49.6863 41.7777L49.712 43.9712C49.446 43.9017 49.1739 43.8584 48.8995 43.8419C48.6688 43.8278 48.4373 43.8422 48.2101 43.885C47.9896 43.9172 47.7895 44.0318 47.65 44.2056C47.5137 44.4099 47.4477 44.653 47.4619 44.8982L47.4789 46.1297L49.6637 45.7063L49.6954 48.0503L47.5274 48.4737L47.6812 57.4361L45.1329 57.9312Z" fill="#DDDDDD"/>
<path d="M54.8001 56.3193C54.1362 56.4735 53.4395 56.3966 52.8253 56.1012C52.2313 55.7919 51.7552 55.2962 51.47 54.6903C51.1182 53.9477 50.9399 53.1348 50.9484 52.3131L50.8239 45.4765L53.3807 44.981L53.4884 51.3516C53.5014 52.2496 53.6638 52.895 53.9801 53.2884C54.2923 53.6818 54.7412 53.8229 55.3354 53.7075C55.9487 53.6026 56.4966 53.2619 56.8618 52.7582C57.2353 52.2078 57.417 51.5497 57.3789 50.8856L57.2548 44.2284L59.8031 43.7329L60.0034 55.0367L57.4554 55.5323L57.4254 54.4591C57.1479 54.9421 56.7739 55.3627 56.3267 55.6947C55.8688 56.0104 55.3481 56.2235 54.8003 56.3195" fill="#DDDDDD"/>
<path d="M63.0837 54.437L62.8058 39.3698L65.3674 37.9589L65.5085 45.7191L68.2543 42.0891L71.5594 41.4428L68.3946 45.4881L72.3494 52.6369L69.6301 53.1671L66.6801 47.69L65.5557 49.1608L65.6283 53.9408L63.0837 54.437Z" fill="#DDDDDD"/>
<path d="M77.6532 51.8727C76.9877 52.027 76.2896 51.95 75.6737 51.6545C75.0821 51.3453 74.6077 50.8514 74.3227 50.2479C73.9709 49.5038 73.7925 48.6896 73.8009 47.8666L73.6768 41.03L76.2336 40.5344L76.3413 46.9051C76.35 47.803 76.5167 48.4485 76.8287 48.8462C77.1409 49.2353 77.5898 49.3764 78.184 49.2609C78.7973 49.1561 79.3452 48.8154 79.7104 48.3117C80.0858 47.7621 80.2677 47.1033 80.2275 46.4391L80.1034 39.7819L82.6517 39.2864L82.857 50.5954L80.3085 51.0862L80.2742 50.013C79.9982 50.4957 79.6257 50.9163 79.1798 51.2486C78.7211 51.5628 78.2008 51.7758 77.6534 51.8734" fill="#DDDDDD"/>
<path d="M18.957 62.5186L18.6748 47.0283L21.3812 46.5024L21.5137 53.6299L26.7515 45.459L30.001 44.8263L25.7766 51.4106L30.9886 60.1791L28.1232 60.735L24.1733 53.8999L21.5951 57.931L21.6636 61.9927L18.957 62.5186Z" fill="#C9C9C9"/>
<path d="M37.3259 59.218C35.9791 59.4789 34.8502 59.2693 33.9434 58.581C33.037 57.9012 32.437 56.808 32.1434 55.3015C31.8889 54.1043 31.9065 52.8653 32.1947 51.6758C32.4545 50.6308 32.9958 49.6771 33.7597 48.9182C34.5342 48.1685 35.5156 47.6681 36.5772 47.4816C37.8386 47.2335 38.926 47.4562 39.8394 48.1495C40.7501 48.8421 41.3402 49.8945 41.6138 51.2921C41.8761 52.5105 41.8673 53.7717 41.5882 54.9863C41.3475 56.0396 40.8225 57.0068 40.0704 57.7825C39.3242 58.5313 38.366 59.0328 37.3254 59.2191M37.0346 56.6752C37.5746 56.5771 38.0624 56.2907 38.4113 55.867C38.7936 55.3987 39.047 54.8387 39.1466 54.2424C39.2682 53.5235 39.2535 52.7881 39.1035 52.0746C38.9538 51.305 38.6674 50.7363 38.2527 50.3726C38.0441 50.193 37.7955 50.0659 37.5278 50.0019C37.26 49.938 36.9809 49.939 36.7136 50.0048C36.1785 50.1063 35.6968 50.3941 35.3539 50.8173C34.9725 51.2878 34.7191 51.8489 34.6186 52.4462C34.4923 53.1542 34.5025 53.8799 34.6486 54.5841C34.8067 55.375 35.0889 55.9523 35.5037 56.3156C35.7122 56.4919 35.9595 56.6163 36.2254 56.6787C36.4912 56.7412 36.7681 56.7398 37.0333 56.6747" fill="#C9C9C9"/>
<path d="M44.6154 57.5293L44.4529 48.5669L42.9864 48.8535L42.9265 46.5105L44.4144 46.2199L44.3801 44.4369C44.3371 43.6714 44.5675 42.9155 45.0301 42.304C45.5044 41.727 46.1736 41.3438 46.9113 41.2268C47.2749 41.1595 47.6455 41.1378 48.0144 41.1622C48.4062 41.1882 48.7936 41.26 49.1687 41.3759L49.1944 43.5693C48.9284 43.4998 48.6563 43.4566 48.3819 43.44C48.1512 43.4259 47.9197 43.4404 47.6925 43.4831C47.472 43.5154 47.2719 43.6299 47.1324 43.8037C46.9961 44.008 46.9301 44.2512 46.9443 44.4964L46.9637 45.7287L49.1478 45.3064L49.1778 47.6494L47.0102 48.0718L47.164 57.0342L44.6154 57.5293Z" fill="#C9C9C9"/>
<path d="M54.2869 55.9173C53.6228 56.0717 52.9259 55.9948 52.3115 55.6993C51.7177 55.3899 51.2416 54.8945 50.9563 54.2888C50.6046 53.5461 50.4263 52.7332 50.4348 51.9116L50.3107 45.0745L52.8675 44.579L52.9753 50.9496C52.9882 51.8476 53.1506 52.493 53.4669 52.8864C53.7791 53.2798 54.2278 53.421 54.8222 53.3055C55.4355 53.2006 55.9834 52.8599 56.3487 52.3562C56.7221 51.8058 56.9038 51.1477 56.8657 50.4836L56.7416 43.8264L59.2899 43.3309L59.4907 54.6348L56.9424 55.1303L56.9125 54.0572C56.635 54.5401 56.2609 54.9607 55.8137 55.2927C55.3558 55.6084 54.8351 55.8215 54.2873 55.9175" fill="#C9C9C9"/>
<path d="M62.5689 54.0362L62.291 38.969L64.852 37.5581L64.9931 45.3183L67.738 41.6883L71.0431 41.042L67.8792 45.0874L71.834 52.2362L69.1149 52.7664L66.1647 47.2894L65.0403 48.7602L65.1129 53.5403L62.5689 54.0362Z" fill="#C9C9C9"/>
<path d="M77.14 51.4708C76.4744 51.6253 75.7759 51.5484 75.1599 51.2527C74.5683 50.9436 74.0939 50.4497 73.8088 49.8461C73.4573 49.1019 73.2791 48.2876 73.2877 47.4646L73.1636 40.628L75.7204 40.1325L75.8282 46.5031C75.8368 47.401 76.0035 48.0465 76.3155 48.4442C76.6277 48.8333 77.0767 48.9744 77.6708 48.8589C78.2841 48.7541 78.832 48.4134 79.1972 47.9097C79.5726 47.3601 79.7545 46.7014 79.7143 46.0371L79.5902 39.3799L82.1385 38.8844L82.3438 50.1934L79.7953 50.6842L79.7611 49.6111C79.485 50.0938 79.1125 50.5144 78.6666 50.8466C78.2079 51.1608 77.6876 51.3738 77.1402 51.4714" fill="#C9C9C9"/>
<path d="M18.6172 62.1644L18.335 46.6741L21.0413 46.1482L21.1738 53.2756L26.4117 45.1048L29.661 44.4718L25.4368 51.0564L30.6488 59.8249L27.7834 60.3807L23.8335 53.5447L21.2553 57.5767L21.3238 61.6385L18.6172 62.1644Z" fill="#00B2ED"/>
<path d="M36.984 58.8632C35.6372 59.1241 34.5083 58.9144 33.6015 58.2261C32.6951 57.5463 32.0951 56.4532 31.8015 54.9466C31.547 53.7495 31.5645 52.5104 31.8528 51.321C32.1126 50.276 32.6538 49.3222 33.4177 48.5633C34.1923 47.8136 35.1737 47.3132 36.2353 47.1267C37.4966 46.8787 38.5841 47.1013 39.4975 47.7946C40.4082 48.4872 40.9983 49.5397 41.2719 50.9373C41.5342 52.1557 41.5254 53.4168 41.2463 54.6314C41.0056 55.6848 40.4806 56.6519 39.7285 57.4277C38.9823 58.176 38.0243 58.6771 36.984 58.8632ZM36.6931 56.3192C37.2331 56.2211 37.7209 55.9348 38.0698 55.5111C38.4521 55.0427 38.7055 54.4827 38.8051 53.8864C38.9267 53.1675 38.9121 52.4322 38.762 51.7187C38.6123 50.9491 38.326 50.3803 37.9112 50.0167C37.7026 49.8371 37.454 49.71 37.1863 49.646C36.9186 49.582 36.6394 49.583 36.3721 49.6489C35.837 49.7503 35.3553 50.0382 35.0125 50.4613C34.631 50.9318 34.3777 51.493 34.2771 52.0903C34.1508 52.7983 34.161 53.5239 34.3071 54.2281C34.4652 55.019 34.7475 55.5964 35.1622 55.9596C35.3707 56.1359 35.618 56.2604 35.8839 56.3228C36.1498 56.3852 36.4266 56.3839 36.6918 56.3188" fill="#00B2ED"/>
<path d="M44.278 57.1743L44.1155 48.2119L42.649 48.4985L42.5891 46.1555L44.077 45.8649L44.0427 44.0819C43.9997 43.3164 44.2301 42.5605 44.6927 41.949C45.167 41.372 45.8362 40.9888 46.5739 40.8718C46.9375 40.8045 47.3081 40.7828 47.677 40.8072C48.0688 40.8333 48.4562 40.905 48.8313 41.0209L48.857 43.2143C48.591 43.1449 48.3189 43.1016 48.0445 43.0851C47.8138 43.0709 47.5823 43.0854 47.3551 43.1281C47.1346 43.1604 46.9345 43.2749 46.795 43.4487C46.6587 43.6531 46.5927 43.8962 46.6069 44.1414L46.6239 45.3728L48.8087 44.9495L48.8404 47.2935L46.6722 47.7169L46.826 56.6793L44.278 57.1743Z" fill="#00B2ED"/>
<path d="M53.9451 55.5624C53.2812 55.7167 52.5846 55.6398 51.9703 55.3444C51.3764 55.035 50.9003 54.5394 50.615 53.9335C50.2633 53.1908 50.0849 52.378 50.0934 51.5563L49.9689 44.7196L52.5257 44.2241L52.6335 50.5948C52.6464 51.4927 52.8088 52.1382 53.1251 52.5316C53.4373 52.925 53.8863 53.0661 54.4804 52.9506C55.0937 52.8458 55.6416 52.5051 56.0069 52.0014C56.3803 51.4509 56.562 50.7928 56.5239 50.1288L56.3998 43.4716L58.9481 42.9761L59.1491 54.2808L56.6008 54.7763L56.5709 53.7032C56.2934 54.1861 55.9194 54.6067 55.4721 54.9387C55.0142 55.2544 54.4936 55.4675 53.9457 55.5635" fill="#00B2ED"/>
<path d="M62.2287 53.6821L61.9512 38.6149L64.5124 37.2037L64.6535 44.964L67.3993 41.3342L70.7044 40.6879L67.5395 44.7332L71.4944 51.882L68.7751 52.4122L65.825 46.9353L64.7004 48.4067L64.773 53.1868L62.2287 53.6821Z" fill="#00B2ED"/>
<path d="M76.7981 51.1202C76.1326 51.2746 75.4344 51.1977 74.8184 50.9021C74.227 50.5932 73.7527 50.0996 73.4676 49.4964C73.1159 48.7522 72.9375 47.9379 72.946 47.1149L72.8219 40.2782L75.3788 39.7827L75.4865 46.1534C75.4951 47.0513 75.6619 47.6968 75.9738 48.0945C76.286 48.4836 76.735 48.6247 77.3292 48.5092C77.9424 48.4044 78.4903 48.0636 78.8556 47.56C79.2309 47.0104 79.4128 46.3516 79.3726 45.6874L79.2488 39.0302L81.797 38.5347L82.0017 49.8411L79.4534 50.3336L79.4192 49.2594C79.1435 49.7424 78.7711 50.1634 78.3254 50.496C77.8667 50.8102 77.3463 51.0232 76.799 51.1208" fill="#00B2ED"/>
<mask id="mask1_971_75488" style="mask-type:luminance" maskUnits="userSpaceOnUse" x="90" y="35" width="68" height="38">
<path d="M158 35.0457H90.8391V72.4613H158V35.0457Z" fill="white"/>
</mask>
<g mask="url(#mask1_971_75488)">
<path d="M98.9927 59.1242C98.2586 59.2468 97.5056 59.1881 96.7993 58.9531C96.1723 58.7327 95.6066 58.3664 95.149 57.8843C94.6766 57.3922 94.2997 56.8166 94.0374 56.1869L96.1487 55.0582C96.4025 55.6014 96.7857 56.0741 97.2647 56.4348C97.7704 56.7702 98.3884 56.8916 98.9835 56.7727C99.3849 56.725 99.7729 56.5986 100.125 56.4006C100.424 56.2409 100.67 55.999 100.835 55.7036C100.995 55.3946 101.052 55.0425 100.997 54.6988C100.955 54.3639 100.798 54.0541 100.553 53.8224C100.28 53.5856 99.9651 53.4015 99.6248 53.2795C99.2528 53.1341 98.8639 53.0059 98.4363 52.8818C98.0301 52.7525 97.6068 52.6209 97.1835 52.4714C96.7616 52.3313 96.3615 52.1326 95.9949 51.8813C95.6198 51.6309 95.2986 51.3082 95.0499 50.932C94.7705 50.4794 94.5968 49.9696 94.5419 49.4405C94.4321 48.7505 94.5303 48.0434 94.8241 47.4095C95.1307 46.757 95.6154 46.2044 96.2224 45.8153C96.9436 45.3521 97.761 45.0594 98.6123 44.9593C99.3498 44.8304 100.108 44.8787 100.823 45.1004C101.381 45.2878 101.883 45.611 102.285 46.0408C102.639 46.4162 102.91 46.862 103.08 47.3492L100.991 48.401C100.835 48.006 100.558 47.6706 100.2 47.4434C99.7675 47.1872 99.2561 47.0989 98.7631 47.1954C98.2264 47.2381 97.7214 47.4666 97.3351 47.8417C97.1925 47.989 97.0849 48.1667 97.0205 48.3614C96.9561 48.556 96.9364 48.7628 96.9631 48.9661C97.0032 49.2342 97.1417 49.4778 97.3515 49.6495C97.6018 49.8337 97.8785 49.979 98.1723 50.0804C98.5102 50.1959 98.865 50.3154 99.2541 50.4266C99.685 50.5464 100.139 50.6789 100.588 50.8413C101.045 50.9979 101.483 51.2074 101.892 51.4657C102.307 51.7343 102.664 52.085 102.939 52.4961C103.247 52.9899 103.44 53.5466 103.503 54.1251C103.636 54.9231 103.522 55.7427 103.174 56.4734C102.82 57.1924 102.272 57.7981 101.592 58.2222C100.8 58.7053 99.9138 59.0129 98.9927 59.1242Z" fill="#DBDBDB"/>
<path d="M109.404 57.662C108.195 57.8332 107.201 57.5938 106.424 56.9437C105.65 56.2974 105.162 55.2934 104.974 53.9338C104.801 52.8555 104.874 51.7519 105.188 50.7058C105.467 49.7872 105.993 48.9632 106.71 48.3243C107.434 47.6913 108.333 47.2918 109.288 47.1784C110.426 47.0159 111.378 47.2646 112.161 47.9266C112.94 48.585 113.423 49.5472 113.598 50.8135C113.775 51.9092 113.708 53.0304 113.401 54.0971C113.138 55.0238 112.627 55.8608 111.922 56.5172C111.222 57.1512 110.342 57.5514 109.404 57.662ZM109.263 55.3874C109.749 55.3239 110.198 55.0926 110.533 54.7333C110.896 54.334 111.146 53.8457 111.259 53.318C111.403 52.6837 111.425 52.028 111.324 51.3855C111.226 50.6929 110.999 50.1756 110.648 49.8292C110.471 49.6589 110.255 49.5339 110.019 49.4647C109.783 49.3955 109.533 49.3841 109.292 49.4315C108.811 49.498 108.37 49.731 108.043 50.0899C107.681 50.4916 107.429 50.9808 107.312 51.5094C107.165 52.1328 107.139 52.7787 107.235 53.412C107.338 54.126 107.569 54.6519 107.919 54.9897C108.095 55.159 108.308 55.2836 108.542 55.3528C108.776 55.4221 109.023 55.4339 109.262 55.3874" fill="#DBDBDB"/>
<path d="M119.828 56.1996C118.669 56.362 117.703 56.1013 116.912 55.4171C116.12 54.7328 115.637 53.7325 115.453 52.4201C115.28 51.3543 115.356 50.263 115.675 49.2315C115.957 48.3155 116.482 47.4927 117.193 46.85C117.901 46.222 118.784 45.8239 119.724 45.7082C120.544 45.5718 121.385 45.7193 122.11 46.1263C122.818 46.5417 123.356 47.1946 123.629 47.969L121.478 49.0337C121.363 48.6689 121.124 48.3557 120.802 48.1487C120.483 47.9611 120.106 47.8958 119.742 47.9649C119.274 48.0261 118.844 48.2574 118.536 48.6149C118.191 49.02 117.951 49.5028 117.834 50.0215C117.695 50.6435 117.675 51.2862 117.774 51.9157C117.828 52.4975 118.055 53.0499 118.426 53.5018C118.575 53.6754 118.766 53.8078 118.981 53.8864C119.196 53.965 119.428 53.9872 119.654 53.9508C120.067 53.8952 120.452 53.7061 120.748 53.4122C121.063 53.0804 121.286 52.6719 121.394 52.2272L123.554 52.6377C123.375 53.5582 122.916 54.4009 122.239 55.0495C121.58 55.6824 120.734 56.0857 119.828 56.1996Z" fill="#DBDBDB"/>
<path d="M125.583 55.1564L125.933 45.0703L128.242 44.7454L127.892 54.8315L125.583 55.1564ZM127.109 43.5525C126.968 43.5761 126.823 43.5697 126.685 43.5336C126.546 43.4975 126.417 43.4326 126.305 43.3431C126.187 43.2538 126.088 43.1415 126.013 43.0129C125.939 42.8843 125.892 42.7421 125.874 42.5948C125.846 42.3912 125.858 42.184 125.91 41.9851C125.962 41.7862 126.053 41.5996 126.178 41.4362C126.295 41.2693 126.445 41.1288 126.62 41.0235C126.794 40.9182 126.988 40.8505 127.19 40.8247C127.336 40.7978 127.485 40.8018 127.629 40.8364C127.772 40.8711 127.907 40.9356 128.024 41.0258C128.14 41.1155 128.237 41.2275 128.309 41.3553C128.381 41.4831 128.427 41.624 128.443 41.7697C128.475 41.9746 128.463 42.1839 128.409 42.3842C128.356 42.5845 128.261 42.7715 128.131 42.9331C128.013 43.1015 127.861 43.2436 127.685 43.3503C127.509 43.457 127.313 43.5261 127.109 43.5531" fill="#DBDBDB"/>
<path d="M133.445 54.2842C132.5 54.4166 131.726 54.2626 131.128 53.8102C130.822 53.578 130.567 53.2849 130.38 52.9493C130.193 52.6136 130.078 52.2429 130.042 51.8604C129.935 51.193 130.027 50.5088 130.307 49.8937C130.6 49.2895 131.056 48.7795 131.624 48.4218C132.284 48.0096 133.027 47.7496 133.8 47.6606C134.216 47.6014 134.638 47.5869 135.057 47.6175C135.423 47.6439 135.783 47.729 136.122 47.8698L136.139 47.3096C136.177 46.7064 136.053 46.2665 135.763 46.0013C135.472 45.732 135.044 45.6378 134.471 45.719C133.951 45.7943 133.446 45.9516 132.975 46.185C132.442 46.438 131.946 46.7616 131.5 47.147L130.91 45.3013C131.434 44.852 132.017 44.4752 132.641 44.181C133.245 43.9037 133.886 43.7164 134.544 43.6251C135.236 43.5048 135.947 43.5712 136.605 43.8175C137.176 44.0401 137.654 44.4504 137.96 44.9809C138.294 45.5819 138.448 46.266 138.405 46.952L138.191 53.3825L135.908 53.7031L135.933 52.895C135.655 53.271 135.295 53.5794 134.881 53.797C134.437 54.047 133.95 54.2123 133.445 54.2844M133.774 52.1465C134.639 52.0125 135.43 51.5777 136.006 50.9185L136.036 49.7426C135.752 49.637 135.456 49.568 135.155 49.5373C134.809 49.4977 134.46 49.5049 134.116 49.5589C133.743 49.5985 133.382 49.7103 133.051 49.8881C132.789 50.0248 132.57 50.2321 132.419 50.4866C132.284 50.7268 132.233 51.005 132.273 51.2774C132.289 51.428 132.341 51.5725 132.425 51.6989C132.508 51.8253 132.62 51.93 132.752 52.0043C133.067 52.1655 133.427 52.2153 133.774 52.1455" fill="#DBDBDB"/>
<path d="M140.665 53.0354L141.123 39.5972L143.461 38.4651L142.957 52.7103L140.665 53.0354Z" fill="#DBDBDB"/>
</g>
<mask id="mask2_971_75488" style="mask-type:luminance" maskUnits="userSpaceOnUse" x="90" y="34" width="68" height="39">
<path d="M157.594 34.6438H90.433V72.0594H157.594V34.6438Z" fill="white"/>
</mask>
<g mask="url(#mask2_971_75488)">
<path d="M98.5822 58.7222C97.8495 58.8448 97.0979 58.7861 96.3931 58.5511C95.7648 58.3307 95.1977 57.9644 94.7385 57.4823C94.2675 56.989 93.8907 56.4137 93.6268 55.7848L95.7433 54.6561C95.9958 55.2003 96.3792 55.6733 96.8593 56.0328C97.3649 56.368 97.9826 56.4894 98.5775 56.3706C98.9787 56.3223 99.3666 56.1959 99.7193 55.9986C100.018 55.8391 100.265 55.5972 100.43 55.3016C100.589 54.9921 100.644 54.64 100.588 54.2968C100.55 53.9608 100.392 53.6498 100.144 53.4204C99.8729 53.1827 99.5595 52.9984 99.2201 52.8774C98.8481 52.732 98.4549 52.6038 98.0315 52.4797C97.6211 52.3505 97.2021 52.2188 96.7788 52.0693C96.3559 51.9284 95.9545 51.7298 95.5858 51.4792C95.2112 51.2299 94.8911 50.9069 94.6452 50.53C94.3654 50.0766 94.1899 49.5667 94.1314 49.0372C94.0259 48.3472 94.1239 47.6413 94.4136 47.0062C94.7215 46.3546 95.2058 45.8023 95.8116 45.4119C96.5343 44.9484 97.3532 44.6559 98.2061 44.5568C98.9436 44.4281 99.7013 44.4764 100.416 44.698C100.974 44.8865 101.476 45.2096 101.879 45.6386C102.231 46.0152 102.502 46.4608 102.674 46.9474L100.584 47.9992C100.428 47.603 100.15 47.2673 99.7889 47.0415C99.3569 46.7849 98.8454 46.6966 98.3523 46.7936C97.8168 46.8361 97.3131 47.0648 96.9285 47.4399C96.785 47.5864 96.6768 47.7638 96.6122 47.9584C96.5475 48.1531 96.5282 48.3599 96.5556 48.5632C96.5921 48.8329 96.7315 49.078 96.9446 49.2472C97.1944 49.4324 97.4713 49.5777 97.7655 49.6781C98.099 49.7936 98.4581 49.9132 98.8472 50.0243C99.2781 50.1441 99.7279 50.2766 100.181 50.4391C100.639 50.5957 101.076 50.8054 101.485 51.0639C101.901 51.3325 102.257 51.6832 102.533 52.0943C102.839 52.589 103.032 53.1453 103.097 53.7233C103.228 54.5213 103.113 55.3403 102.768 56.0716C102.414 56.7917 101.864 57.3977 101.182 57.8203C100.39 58.3048 99.5036 58.6123 98.5822 58.7222Z" fill="#C1C1C1"/>
<path d="M108.993 57.2598C107.783 57.4301 106.79 57.1907 106.013 56.5415C105.239 55.8952 104.752 54.8912 104.564 53.5316C104.39 52.4532 104.463 51.3496 104.777 50.3036C105.056 49.385 105.583 48.561 106.299 47.9221C107.024 47.2891 107.922 46.8896 108.878 46.7762C110.015 46.6137 110.967 46.8623 111.751 47.5244C112.529 48.1828 113.012 49.1447 113.187 50.4113C113.364 51.507 113.297 52.6281 112.991 53.6949C112.728 54.6215 112.216 55.4585 111.512 56.1149C110.812 56.7494 109.931 57.15 108.993 57.2609M108.852 54.9862C109.339 54.9228 109.788 54.6914 110.122 54.3321C110.485 53.9328 110.736 53.4445 110.849 52.9169C110.992 52.2826 111.014 51.6269 110.913 50.9844C110.815 50.2917 110.589 49.7745 110.238 49.428C110.06 49.258 109.845 49.1331 109.609 49.0639C109.373 48.9947 109.124 48.9832 108.883 49.0303C108.402 49.0968 107.96 49.3298 107.634 49.6887C107.271 50.0905 107.019 50.5797 106.903 51.1083C106.755 51.7317 106.729 52.3776 106.826 53.0108C106.928 53.7248 107.159 54.2507 107.51 54.5885C107.685 54.7579 107.899 54.8824 108.132 54.9516C108.366 55.0209 108.613 55.0327 108.852 54.9862Z" fill="#C1C1C1"/>
<path d="M119.417 55.7976C118.263 55.96 117.296 55.6994 116.505 55.0151C115.714 54.3309 115.231 53.3306 115.047 52.0179C114.875 50.9521 114.951 49.8609 115.27 48.8293C115.552 47.9133 116.076 47.0905 116.788 46.4478C117.496 45.8199 118.379 45.4217 119.319 45.306C120.139 45.1699 120.98 45.3177 121.705 45.725C122.412 46.1396 122.949 46.793 123.218 47.5677L121.072 48.6324C120.957 48.2675 120.718 47.9544 120.396 47.7474C120.076 47.5598 119.7 47.4945 119.336 47.5636C118.867 47.6248 118.438 47.8561 118.129 48.2136C117.785 48.6187 117.544 49.1015 117.428 49.6202C117.289 50.2422 117.268 50.8849 117.368 51.5144C117.422 52.0958 117.648 52.6478 118.018 53.0996C118.168 53.2732 118.359 53.4056 118.574 53.4843C118.789 53.5629 119.02 53.585 119.246 53.5486C119.66 53.493 120.044 53.3039 120.341 53.01C120.656 52.6782 120.879 52.2697 120.987 51.8251L123.146 52.2361C122.968 53.1565 122.509 53.999 121.832 54.6476C121.171 55.2813 120.324 55.6846 119.416 55.7976" fill="#C1C1C1"/>
<path d="M125.172 54.7544L125.523 44.6683L127.831 44.3434L127.481 54.4295L125.172 54.7544ZM126.698 43.1505C126.557 43.1741 126.413 43.1677 126.274 43.1316C126.136 43.0955 126.006 43.0306 125.895 42.9411C125.776 42.8518 125.677 42.7395 125.603 42.6109C125.529 42.4823 125.481 42.3401 125.464 42.1928C125.435 41.9892 125.447 41.782 125.499 41.5831C125.551 41.3842 125.643 41.1976 125.767 41.0342C125.884 40.8674 126.035 40.7268 126.209 40.6215C126.383 40.5162 126.578 40.4485 126.78 40.4228C126.925 40.3958 127.074 40.3998 127.218 40.4345C127.362 40.4691 127.497 40.5336 127.614 40.6238C127.73 40.7135 127.827 40.8255 127.898 40.9533C127.97 41.0811 128.016 41.222 128.033 41.3677C128.064 41.5727 128.053 41.782 127.999 41.9823C127.945 42.1826 127.85 42.3695 127.72 42.5311C127.602 42.6995 127.45 42.8416 127.275 42.9483C127.099 43.0551 126.903 43.1241 126.699 43.1511" fill="#C1C1C1"/>
<path d="M133.039 53.8821C132.094 54.0145 131.32 53.8605 130.722 53.4081C130.416 53.1759 130.161 52.8828 129.974 52.5472C129.787 52.2115 129.672 51.8408 129.636 51.4583C129.528 50.7909 129.62 50.1067 129.901 49.4916C130.193 48.8878 130.65 48.3782 131.218 48.0207C131.877 47.6086 132.621 47.3486 133.394 47.2596C133.81 47.2003 134.231 47.1859 134.651 47.2165C135.017 47.2429 135.376 47.328 135.715 47.4688L135.732 46.9086C135.771 46.3054 135.646 45.8654 135.356 45.6002C135.065 45.3309 134.638 45.2368 134.065 45.318C133.545 45.3934 133.04 45.5507 132.569 45.7842C132.036 46.0372 131.54 46.3608 131.093 46.7462L130.503 44.8992C131.028 44.4499 131.61 44.0731 132.235 43.7789C132.838 43.5016 133.479 43.3143 134.137 43.223C134.829 43.1027 135.541 43.1691 136.198 43.4154C136.769 43.638 137.247 44.0483 137.554 44.5788C137.887 45.1798 138.042 45.8639 137.998 46.5499L137.785 52.98L135.501 53.3006L135.527 52.4924C135.249 52.8685 134.889 53.1769 134.475 53.3945C134.03 53.6445 133.543 53.8097 133.038 53.8818M133.368 51.744C134.233 51.6105 135.023 51.1762 135.6 50.5175L135.63 49.3416C135.346 49.236 135.05 49.167 134.749 49.1363C134.403 49.0967 134.054 49.1039 133.71 49.1578C133.337 49.1975 132.975 49.3093 132.645 49.487C132.383 49.6238 132.164 49.8311 132.013 50.0855C131.878 50.3257 131.827 50.604 131.867 50.8764C131.883 51.027 131.935 51.1715 132.019 51.2979C132.102 51.4242 132.215 51.5289 132.347 51.6031C132.662 51.7643 133.022 51.814 133.369 51.7442" fill="#C1C1C1"/>
<path d="M140.256 52.6344L140.714 39.1962L143.052 38.0627L142.548 52.3095L140.256 52.6344Z" fill="#C1C1C1"/>
</g>
<mask id="mask3_971_75488" style="mask-type:luminance" maskUnits="userSpaceOnUse" x="90" y="34" width="68" height="38">
<path d="M157.594 34.105H90.433V71.5206H157.594V34.105Z" fill="white"/>
</mask>
<g mask="url(#mask3_971_75488)">
<path d="M98.5822 58.1878C97.8495 58.3104 97.0979 58.2517 96.3931 58.0167C95.7648 57.7963 95.1977 57.43 94.7385 56.9479C94.2675 56.4546 93.8907 55.8793 93.6268 55.2504L95.7433 54.1217C95.9958 54.6659 96.3792 55.1389 96.8593 55.4984C97.3649 55.8336 97.9826 55.955 98.5775 55.8362C98.9787 55.7879 99.3666 55.6615 99.7193 55.4642C100.018 55.3047 100.265 55.0628 100.43 54.7672C100.589 54.4577 100.644 54.1056 100.588 53.7624C100.55 53.4264 100.392 53.1154 100.144 52.886C99.8729 52.6483 99.5595 52.464 99.2201 52.343C98.8481 52.1976 98.4549 52.0694 98.0315 51.9453C97.6211 51.8161 97.2021 51.6844 96.7788 51.5349C96.3556 51.3941 95.9539 51.1955 95.585 50.9448C95.2102 50.6952 94.8902 50.372 94.6444 49.9947C94.3649 49.5415 94.1897 49.0318 94.1314 48.5026C94.0259 47.8125 94.1239 47.1067 94.4136 46.4716C94.7215 45.82 95.2058 45.2677 95.8116 44.8773C96.5343 44.4139 97.3533 44.1216 98.2061 44.0227C98.9436 43.8939 99.7013 43.9423 100.416 44.1638C100.974 44.3523 101.476 44.6753 101.879 45.1042C102.231 45.4806 102.502 45.9261 102.674 46.4126L100.584 47.4644C100.428 47.0682 100.15 46.7325 99.7889 46.5067C99.3569 46.2501 98.8454 46.1618 98.3523 46.2587C97.8168 46.3013 97.3131 46.53 96.9285 46.9051C96.785 47.0518 96.6769 47.2294 96.6124 47.4242C96.5479 47.6191 96.5288 47.8261 96.5564 48.0295C96.593 48.2991 96.7324 48.5442 96.9455 48.7135C97.1952 48.8986 97.4721 49.044 97.7663 49.1444C98.0998 49.2598 98.459 49.3794 98.8481 49.4906C99.279 49.6104 99.7288 49.7429 100.182 49.9053C100.64 50.062 101.077 50.2716 101.486 50.5301C101.902 50.7988 102.258 51.1494 102.534 51.5606C102.84 52.0552 103.032 52.6115 103.098 53.1895C103.229 53.9876 103.114 54.8065 102.769 55.5378C102.415 56.2579 101.865 56.8639 101.183 57.2866C100.391 57.7711 99.5045 58.0788 98.5831 58.1886" fill="#6532B3"/>
<path d="M108.993 56.7211C107.783 56.8922 106.79 56.6527 106.013 56.0028C105.239 55.3565 104.752 54.3525 104.563 52.9929C104.39 51.9145 104.463 50.8109 104.777 49.7649C105.056 48.8463 105.583 48.0223 106.299 47.3834C107.024 46.7504 107.922 46.3509 108.878 46.2375C110.015 46.075 110.967 46.3236 111.751 46.9857C112.529 47.6441 113.012 48.606 113.187 49.8726C113.364 50.9683 113.297 52.0894 112.991 53.1562C112.728 54.0829 112.216 54.9199 111.511 55.5762C110.811 56.2107 109.931 56.6113 108.993 56.7222M108.852 54.4465C109.339 54.383 109.788 54.1516 110.122 53.7924C110.485 53.393 110.736 52.9048 110.849 52.3771C110.992 51.7428 111.014 51.0871 110.913 50.4446C110.815 49.752 110.589 49.2347 110.238 48.8883C110.06 48.7182 109.844 48.5933 109.609 48.5241C109.373 48.4549 109.124 48.4434 108.882 48.4906C108.402 48.5571 107.96 48.7901 107.634 49.1489C107.271 49.5507 107.019 50.0399 106.903 50.5685C106.755 51.1919 106.729 51.8378 106.826 52.4711C106.928 53.185 107.159 53.7109 107.51 54.0487C107.685 54.2181 107.899 54.3426 108.132 54.4119C108.366 54.4811 108.613 54.493 108.852 54.4465Z" fill="#6532B3"/>
<path d="M119.417 55.2588C118.263 55.4213 117.296 55.1606 116.505 54.4763C115.714 53.7921 115.231 52.7918 115.047 51.4793C114.875 50.4135 114.951 49.3223 115.27 48.2908C115.552 47.3747 116.076 46.5519 116.788 45.9093C117.496 45.2813 118.379 44.8831 119.319 44.7674C120.139 44.6313 120.98 44.7791 121.705 45.1865C122.412 45.6011 122.949 46.2544 123.218 47.0291L121.072 48.0926C120.957 47.7277 120.718 47.4146 120.396 47.2075C120.076 47.02 119.7 46.9547 119.336 47.0238C118.867 47.0849 118.438 47.3163 118.129 47.6737C117.785 48.0789 117.544 48.5616 117.428 49.0804C117.289 49.7023 117.268 50.345 117.368 50.9745C117.422 51.5563 117.648 52.1087 118.018 52.5608C118.168 52.7344 118.359 52.8669 118.574 52.9455C118.789 53.0241 119.02 53.0462 119.246 53.0098C119.66 52.9542 120.044 52.7651 120.341 52.4712C120.656 52.1394 120.879 51.7309 120.987 51.2863L123.146 51.6973C122.968 52.6177 122.509 53.4602 121.832 54.1088C121.171 54.7425 120.324 55.1459 119.416 55.2588" fill="#6532B3"/>
<path d="M125.172 54.2156L125.522 44.1295L127.831 43.8046L127.481 53.8907L125.172 54.2156ZM126.698 42.6117C126.557 42.6353 126.413 42.6289 126.274 42.5928C126.136 42.5567 126.006 42.4918 125.895 42.4023C125.776 42.313 125.677 42.2007 125.603 42.0721C125.529 41.9435 125.481 41.8013 125.464 41.654C125.435 41.4504 125.447 41.2432 125.499 41.0443C125.551 40.8454 125.643 40.6588 125.767 40.4954C125.884 40.3285 126.035 40.188 126.209 40.0827C126.383 39.9774 126.578 39.9097 126.78 39.884C126.925 39.857 127.074 39.861 127.218 39.8956C127.362 39.9303 127.497 39.9948 127.614 40.085C127.73 40.1746 127.827 40.2867 127.898 40.4145C127.97 40.5423 128.016 40.6832 128.033 40.8289C128.064 41.0338 128.053 41.2431 127.999 41.4434C127.945 41.6437 127.85 41.8307 127.72 41.9923C127.602 42.1607 127.45 42.3028 127.275 42.4095C127.099 42.5162 126.903 42.5853 126.699 42.6123" fill="#6532B3"/>
<path d="M133.039 53.3433C132.094 53.4758 131.32 53.3218 130.722 52.8694C130.416 52.6372 130.161 52.3441 129.974 52.0084C129.787 51.6728 129.672 51.3021 129.636 50.9196C129.528 50.2522 129.62 49.568 129.901 48.9528C130.193 48.3491 130.65 47.8395 131.218 47.482C131.877 47.07 132.621 46.81 133.394 46.7211C133.81 46.6618 134.231 46.6474 134.651 46.678C135.017 46.7044 135.376 46.7896 135.715 46.9303L135.732 46.3701C135.771 45.7669 135.646 45.327 135.356 45.0617C135.065 44.7924 134.638 44.6983 134.065 44.7795C133.545 44.8545 133.04 45.0115 132.569 45.2447C132.036 45.4977 131.54 45.8212 131.093 46.2066L130.504 44.3613C131.028 43.9121 131.61 43.5353 132.235 43.241C132.839 42.9638 133.48 42.7765 134.138 42.6852C134.83 42.5649 135.541 42.6313 136.199 42.8776C136.769 43.1001 137.247 43.5104 137.554 44.041C137.888 44.6419 138.042 45.326 137.999 46.0121L137.785 52.4404L135.501 52.761L135.527 51.9529C135.249 52.329 134.889 52.6373 134.475 52.8549C134.03 53.1049 133.543 53.2702 133.038 53.3423M133.368 51.2044C134.233 51.0705 135.023 50.6356 135.599 49.9764L135.629 48.8005C135.346 48.6949 135.05 48.6259 134.749 48.5952C134.403 48.5556 134.053 48.5628 133.71 48.6168C133.337 48.6564 132.975 48.7682 132.645 48.946C132.382 49.0827 132.163 49.29 132.012 49.5445C131.877 49.7847 131.826 50.0629 131.867 50.3353C131.883 50.4864 131.935 50.6313 132.018 50.7582C132.102 50.885 132.214 50.99 132.347 51.0644C132.662 51.2256 133.022 51.2753 133.369 51.2055" fill="#6532B3"/>
<path d="M140.256 52.0961L140.714 38.6579L143.052 37.5249L142.548 51.7708L140.256 52.0961Z" fill="#6532B3"/>
</g>
</svg>


